<?xml version="1.0" encoding="utf-8"?>
<!-- Generator: Adobe Illustrator 27.0.1, SVG Export Plug-In . SVG Version: 6.00 Build 0)  -->
<svg version="1.0" id="Layer_1" xmlns="http://www.w3.org/2000/svg" xmlns:xlink="http://www.w3.org/1999/xlink" x="0px" y="0px"
	 viewBox="0 0 246 55" style="enable-background:new 0 0 246 55;" xml:space="preserve">
<style type="text/css">
	.st0{display:none;}
	.st1{display:inline;fill:#64B0AE;}
	.st2{display:inline;fill:#465A65;}
	.st3{fill:#64B0AE;}
	.st4{fill:#DADDE2;}
	.st5{fill:#465A65;}
</style>
<g class="st0">
	<path class="st1" d="M77.9,26.4v1.7h-5.6v18.6h-2V28.1h-5.7v-1.7H77.9z"/>
	<path class="st1" d="M83.9,31.4c0.9-0.5,2-0.8,3.4-0.8v2.1h-0.6c-1.5,0-2.6,0.4-3.5,1.2c-0.9,0.8-1.3,2.1-1.3,4v8.8h-2V30.8h2v2.8
		C82.3,32.7,83,31.9,83.9,31.4z"/>
	<path class="st1" d="M89.1,34.4c0.6-1.2,1.5-2.2,2.7-2.8c1.1-0.7,2.4-1,3.9-1c1.5,0,2.8,0.3,3.9,1c1.1,0.7,1.9,1.6,2.4,2.7v-3.5h2
		v15.8h-2v-3.5c-0.5,1.1-1.3,2-2.4,2.7c-1.1,0.7-2.4,1.1-3.9,1.1c-1.4,0-2.7-0.3-3.9-1c-1.1-0.7-2-1.6-2.7-2.9c-0.6-1.2-1-2.7-1-4.3
		S88.5,35.7,89.1,34.4z M101.2,35.4c-0.5-1-1.2-1.7-2.1-2.2s-1.9-0.8-3-0.8c-1.1,0-2.1,0.3-3,0.8c-0.9,0.5-1.6,1.2-2.1,2.2
		c-0.5,1-0.8,2.1-0.8,3.4c0,1.3,0.3,2.4,0.8,3.4c0.5,1,1.2,1.7,2.1,2.2c0.9,0.5,1.9,0.8,3,0.8c1.1,0,2.1-0.3,3-0.8s1.6-1.3,2.1-2.2
		c0.5-1,0.8-2.1,0.8-3.4S101.7,36.3,101.2,35.4z"/>
	<path class="st1" d="M107.5,34.4c0.7-1.2,1.6-2.2,2.7-2.8c1.2-0.7,2.5-1,4-1c2,0,3.6,0.5,4.8,1.4c1.3,1,2.1,2.3,2.4,3.9h-2.2
		c-0.3-1.1-0.9-2-1.8-2.7c-0.9-0.6-2-1-3.3-1c-1.1,0-2,0.2-2.9,0.7c-0.9,0.5-1.5,1.2-2,2.2s-0.7,2.1-0.7,3.5c0,1.4,0.2,2.6,0.7,3.5
		c0.5,1,1.2,1.7,2,2.2c0.9,0.5,1.8,0.7,2.9,0.7c1.3,0,2.4-0.3,3.3-1c0.9-0.6,1.5-1.6,1.8-2.7h2.2c-0.4,1.6-1.2,2.9-2.5,3.9
		c-1.3,1-2.9,1.5-4.8,1.5c-1.5,0-2.8-0.3-4-1c-1.2-0.7-2.1-1.6-2.7-2.8c-0.7-1.2-1-2.7-1-4.3S106.8,35.7,107.5,34.4z"/>
	<path class="st1" d="M132.5,46.7l-6.5-7.1v7.1h-2V25.2h2v12.7l6.4-7.1h2.8l-7.5,7.9l7.6,7.9H132.5z"/>
	<path class="st1" d="M136.6,27.4c-0.3-0.3-0.4-0.6-0.4-1.1c0-0.4,0.1-0.8,0.4-1.1c0.3-0.3,0.6-0.4,1-0.4s0.8,0.1,1,0.4
		c0.3,0.3,0.4,0.6,0.4,1.1c0,0.4-0.1,0.8-0.4,1.1c-0.3,0.3-0.6,0.4-1,0.4S136.9,27.7,136.6,27.4z M138.6,30.8v15.8h-2V30.8H138.6z"
		/>
	<path class="st1" d="M154,32.3c1.2,1.2,1.8,2.9,1.8,5.1v9.3h-2v-9c0-1.7-0.4-3-1.3-3.9c-0.9-0.9-2-1.4-3.5-1.4
		c-1.5,0-2.7,0.5-3.7,1.4c-0.9,1-1.4,2.4-1.4,4.3v8.6h-2V30.8h2v2.7c0.5-1,1.2-1.7,2.2-2.2c0.9-0.5,2-0.8,3.2-0.8
		C151.3,30.5,152.8,31.1,154,32.3z"/>
	<path class="st1" d="M169.6,31.6c1.1,0.7,1.9,1.6,2.4,2.6v-3.4h2v16.2c0,1.4-0.3,2.7-0.9,3.9c-0.6,1.1-1.5,2-2.6,2.6
		s-2.4,0.9-3.8,0.9c-2,0-3.7-0.5-5.1-1.4c-1.3-1-2.2-2.3-2.5-3.9h2c0.3,1.1,1,2,2,2.6c1,0.7,2.2,1,3.6,1c1,0,1.9-0.2,2.8-0.7
		c0.8-0.4,1.4-1.1,1.9-1.9c0.5-0.9,0.7-1.9,0.7-3v-3.9c-0.5,1.1-1.3,2-2.4,2.7c-1.1,0.7-2.4,1.1-3.9,1.1c-1.4,0-2.7-0.3-3.9-1
		c-1.1-0.7-2-1.6-2.7-2.9c-0.6-1.2-1-2.7-1-4.3s0.3-3,1-4.3c0.6-1.2,1.5-2.2,2.7-2.8c1.1-0.7,2.4-1,3.9-1
		C167.2,30.6,168.5,30.9,169.6,31.6z M171.2,35.4c-0.5-1-1.2-1.7-2.1-2.2s-1.9-0.8-3-0.8c-1.1,0-2.1,0.3-3,0.8
		c-0.9,0.5-1.6,1.2-2.1,2.2c-0.5,1-0.8,2.1-0.8,3.4c0,1.3,0.3,2.4,0.8,3.4c0.5,1,1.2,1.7,2.1,2.2c0.9,0.5,1.9,0.8,3,0.8
		c1.1,0,2.1-0.3,3-0.8s1.6-1.3,2.1-2.2c0.5-1,0.8-2.1,0.8-3.4S171.7,36.3,171.2,35.4z"/>
</g>
<g class="st0">
	<path class="st2" d="M66.9,3.8v7.6h7.7V13h-7.7v7.7h8.6v1.7H64.9V2.1h10.6v1.7H66.9z"/>
	<path class="st2" d="M86.5,22.4L82.4,16l-3.9,6.4h-2.1l5.1-7.9l-5-7.9h2.3l4,6.3l3.9-6.3h2.1l-5,7.8l5.1,8H86.5z"/>
	<path class="st2" d="M94.7,7.4c1.1-0.7,2.4-1.1,3.9-1.1c1.4,0,2.7,0.3,3.9,1c1.1,0.7,2,1.6,2.7,2.8c0.6,1.2,1,2.7,1,4.3
		s-0.3,3.1-1,4.3c-0.6,1.2-1.5,2.2-2.7,2.9c-1.1,0.7-2.4,1-3.9,1c-1.5,0-2.8-0.4-3.9-1.1c-1.1-0.7-1.9-1.6-2.4-2.7v11h-2V6.6h2V10
		C92.8,9,93.6,8.1,94.7,7.4z M103.3,11c-0.5-1-1.2-1.7-2.1-2.2s-1.9-0.8-3-0.8c-1.1,0-2.1,0.3-3,0.8s-1.6,1.3-2.1,2.2
		c-0.5,1-0.8,2.1-0.8,3.4c0,1.3,0.3,2.4,0.8,3.4c0.5,1,1.2,1.7,2.1,2.2c0.9,0.5,1.9,0.8,3,0.8c1.1,0,2.1-0.3,3-0.8s1.6-1.3,2.1-2.2
		c0.5-1,0.8-2.1,0.8-3.4C104.1,13.1,103.8,12,103.3,11z"/>
	<path class="st2" d="M122.9,15.2h-13.1c0.1,1.2,0.3,2.2,0.9,3.1c0.5,0.9,1.2,1.5,2.1,1.9c0.9,0.4,1.8,0.7,2.8,0.7
		c1.3,0,2.4-0.3,3.3-1c0.9-0.6,1.5-1.5,1.8-2.6h2.1c-0.4,1.5-1.2,2.8-2.5,3.8c-1.3,1-2.9,1.5-4.8,1.5c-1.5,0-2.8-0.3-4-1
		s-2.1-1.6-2.8-2.8c-0.7-1.2-1-2.7-1-4.3s0.3-3.1,1-4.3c0.7-1.2,1.6-2.2,2.8-2.8c1.2-0.7,2.5-1,4-1c1.5,0,2.8,0.3,4,1s2,1.5,2.6,2.7
		c0.6,1.1,0.9,2.3,0.9,3.7C122.9,14.3,122.9,14.9,122.9,15.2z M120.2,10.6c-0.5-0.8-1.2-1.5-2-1.9c-0.9-0.4-1.8-0.6-2.8-0.6
		c-1.5,0-2.8,0.5-3.9,1.4c-1.1,1-1.7,2.3-1.8,4.1h11.1C120.9,12.4,120.7,11.4,120.2,10.6z"/>
	<path class="st2" d="M137.5,8c1.2,1.2,1.8,2.9,1.8,5.1v9.3h-2v-9c0-1.7-0.4-3-1.3-3.9c-0.9-0.9-2-1.4-3.5-1.4
		c-1.5,0-2.7,0.5-3.7,1.4c-0.9,1-1.4,2.4-1.4,4.3v8.6h-2V6.6h2v2.7c0.5-1,1.2-1.7,2.2-2.2c0.9-0.5,2-0.8,3.2-0.8
		C134.7,6.3,136.3,6.8,137.5,8z"/>
	<path class="st2" d="M143.5,21.3c-1.1-0.8-1.8-2-1.9-3.4h2.1c0.1,0.9,0.5,1.6,1.3,2.2c0.7,0.6,1.7,0.8,3,0.8c1.1,0,2-0.3,2.6-0.8
		c0.6-0.5,0.9-1.2,0.9-1.9c0-0.5-0.2-1-0.5-1.3s-0.8-0.6-1.3-0.8c-0.5-0.2-1.3-0.4-2.2-0.7c-1.2-0.3-2.1-0.6-2.9-0.9
		s-1.4-0.8-1.9-1.4c-0.5-0.6-0.8-1.4-0.8-2.4c0-0.8,0.2-1.5,0.7-2.1c0.5-0.7,1.1-1.2,2-1.6s1.8-0.6,2.9-0.6c1.7,0,3.1,0.4,4.1,1.3
		c1,0.9,1.6,2,1.7,3.6h-2c-0.1-0.9-0.4-1.7-1.1-2.2c-0.7-0.6-1.6-0.9-2.7-0.9c-1,0-1.9,0.2-2.5,0.7c-0.6,0.5-1,1.1-1,1.8
		c0,0.6,0.2,1.1,0.6,1.5c0.4,0.4,0.8,0.7,1.4,0.9c0.6,0.2,1.3,0.5,2.3,0.7c1.1,0.3,2,0.6,2.7,0.9s1.3,0.7,1.7,1.3
		c0.5,0.6,0.7,1.3,0.8,2.2c0,0.9-0.2,1.6-0.7,2.3c-0.5,0.7-1.1,1.2-1.9,1.6c-0.8,0.4-1.8,0.6-2.9,0.6
		C146.1,22.6,144.6,22.2,143.5,21.3z"/>
	<path class="st2" d="M170.3,15.2h-13.1c0.1,1.2,0.3,2.2,0.9,3.1c0.5,0.9,1.2,1.5,2.1,1.9c0.9,0.4,1.8,0.7,2.8,0.7
		c1.3,0,2.4-0.3,3.3-1c0.9-0.6,1.5-1.5,1.8-2.6h2.1c-0.4,1.5-1.2,2.8-2.5,3.8c-1.3,1-2.9,1.5-4.8,1.5c-1.5,0-2.8-0.3-4-1
		s-2.1-1.6-2.8-2.8c-0.7-1.2-1-2.7-1-4.3s0.3-3.1,1-4.3c0.7-1.2,1.6-2.2,2.8-2.8c1.2-0.7,2.5-1,4-1c1.5,0,2.8,0.3,4,1s2,1.5,2.6,2.7
		c0.6,1.1,0.9,2.3,0.9,3.7C170.4,14.3,170.3,14.9,170.3,15.2z M167.6,10.6c-0.5-0.8-1.2-1.5-2-1.9c-0.9-0.4-1.8-0.6-2.8-0.6
		c-1.5,0-2.8,0.5-3.9,1.4c-1.1,1-1.7,2.3-1.8,4.1h11.1C168.3,12.4,168.1,11.4,167.6,10.6z"/>
</g>
<g>
	<path class="st3" d="M76.5,32.7h-9.2l-1.8,4.8h-2.1l7.4-20h2.3l7.4,20h-2.1L76.5,32.7z M75.9,31l-4-11l-4,11H75.9z"/>
	<path class="st3" d="M82.5,25.2c0.7-1.2,1.6-2.2,2.7-2.8c1.2-0.7,2.5-1,4-1c2,0,3.6,0.5,4.8,1.4c1.3,1,2.1,2.3,2.4,3.9h-2.2
		c-0.3-1.1-0.9-2-1.8-2.7c-0.9-0.6-2-1-3.3-1c-1.1,0-2,0.2-2.9,0.7c-0.9,0.5-1.5,1.2-2,2.2s-0.7,2.1-0.7,3.5c0,1.4,0.2,2.6,0.7,3.5
		c0.5,1,1.2,1.7,2,2.2c0.9,0.5,1.8,0.7,2.9,0.7c1.3,0,2.4-0.3,3.3-1c0.9-0.6,1.5-1.6,1.8-2.7h2.2c-0.4,1.6-1.2,2.9-2.5,3.9
		c-1.3,1-2.9,1.5-4.8,1.5c-1.5,0-2.8-0.3-4-1c-1.2-0.7-2.1-1.6-2.7-2.8c-0.7-1.2-1-2.7-1-4.3S81.8,26.5,82.5,25.2z"/>
	<path class="st3" d="M99,25.2c0.7-1.2,1.6-2.2,2.7-2.8c1.2-0.7,2.5-1,4-1c2,0,3.6,0.5,4.8,1.4c1.3,1,2.1,2.3,2.4,3.9h-2.2
		c-0.3-1.1-0.9-2-1.8-2.7c-0.9-0.6-2-1-3.3-1c-1.1,0-2,0.2-2.9,0.7c-0.9,0.5-1.5,1.2-2,2.2s-0.7,2.1-0.7,3.5c0,1.4,0.2,2.6,0.7,3.5
		c0.5,1,1.2,1.7,2,2.2c0.9,0.5,1.8,0.7,2.9,0.7c1.3,0,2.4-0.3,3.3-1c0.9-0.6,1.5-1.6,1.8-2.7h2.2c-0.4,1.6-1.2,2.9-2.5,3.9
		c-1.3,1-2.9,1.5-4.8,1.5c-1.5,0-2.8-0.3-4-1c-1.2-0.7-2.1-1.6-2.7-2.8c-0.7-1.2-1-2.7-1-4.3S98.3,26.5,99,25.2z"/>
	<path class="st3" d="M118.4,36.7c-1.2-0.7-2.1-1.6-2.8-2.8c-0.7-1.2-1-2.7-1-4.3s0.3-3.1,1-4.3c0.7-1.2,1.6-2.2,2.8-2.8
		c1.2-0.7,2.5-1,4-1s2.8,0.3,4,1c1.2,0.7,2.2,1.6,2.8,2.8c0.7,1.2,1,2.7,1,4.3c0,1.6-0.3,3.1-1,4.3c-0.7,1.2-1.7,2.2-2.9,2.9
		c-1.2,0.7-2.6,1-4.1,1C120.9,37.7,119.6,37.4,118.4,36.7z M125.3,35.2c0.9-0.5,1.6-1.2,2.2-2.1c0.6-1,0.8-2.1,0.8-3.5
		c0-1.4-0.3-2.6-0.8-3.5c-0.5-1-1.3-1.7-2.1-2.1c-0.9-0.5-1.9-0.7-2.9-0.7s-2,0.2-2.9,0.7s-1.6,1.2-2.1,2.1c-0.5,1-0.8,2.1-0.8,3.5
		c0,1.4,0.3,2.6,0.8,3.5c0.5,1,1.2,1.7,2.1,2.1c0.9,0.5,1.8,0.7,2.9,0.7C123.4,35.9,124.4,35.7,125.3,35.2z"/>
	<path class="st3" d="M146.5,21.6v15.8h-2v-2.8c-0.5,1-1.2,1.7-2.1,2.3c-1,0.5-2,0.8-3.2,0.8c-1.9,0-3.4-0.6-4.6-1.8
		c-1.2-1.2-1.8-2.9-1.8-5.1v-9.2h2v9c0,1.7,0.4,3,1.3,3.9c0.9,0.9,2,1.4,3.5,1.4c1.5,0,2.7-0.5,3.7-1.4s1.4-2.4,1.4-4.3v-8.6H146.5z
		"/>
	<path class="st3" d="M162,23.1c1.2,1.2,1.8,2.9,1.8,5.1v9.3h-2v-9c0-1.7-0.4-3-1.3-3.9c-0.9-0.9-2-1.4-3.5-1.4
		c-1.5,0-2.7,0.5-3.7,1.4c-0.9,1-1.4,2.4-1.4,4.3v8.6h-2V21.6h2v2.7c0.5-1,1.2-1.7,2.2-2.2c0.9-0.5,2-0.8,3.2-0.8
		C159.2,21.4,160.8,21.9,162,23.1z"/>
	<path class="st3" d="M169.7,23.4v9.8c0,1,0.2,1.6,0.6,2c0.4,0.4,1,0.6,1.9,0.6h1.9v1.7h-2.2c-1.4,0-2.5-0.3-3.2-1
		c-0.7-0.7-1-1.8-1-3.3v-9.8h-2.2v-1.7h2.2v-4h2.1v4h4.3v1.7H169.7z"/>
	<path class="st3" d="M176.1,18.2c-0.3-0.3-0.4-0.6-0.4-1.1c0-0.4,0.1-0.8,0.4-1.1c0.3-0.3,0.6-0.4,1-0.4s0.8,0.1,1,0.4
		c0.3,0.3,0.4,0.6,0.4,1.1c0,0.4-0.1,0.8-0.4,1.1c-0.3,0.3-0.6,0.4-1,0.4S176.3,18.5,176.1,18.2z M178.1,21.6v15.8h-2V21.6H178.1z"
		/>
	<path class="st3" d="M193.5,23.1c1.2,1.2,1.8,2.9,1.8,5.1v9.3h-2v-9c0-1.7-0.4-3-1.3-3.9c-0.9-0.9-2-1.4-3.5-1.4
		c-1.5,0-2.7,0.5-3.7,1.4c-0.9,1-1.4,2.4-1.4,4.3v8.6h-2V21.6h2v2.7c0.5-1,1.2-1.7,2.2-2.2c0.9-0.5,2-0.8,3.2-0.8
		C190.8,21.4,192.3,21.9,193.5,23.1z"/>
	<path class="st3" d="M209.1,22.5c1.1,0.7,1.9,1.6,2.4,2.6v-3.4h2v16.2c0,1.4-0.3,2.7-0.9,3.9c-0.6,1.1-1.5,2-2.6,2.6
		s-2.4,0.9-3.8,0.9c-2,0-3.7-0.5-5.1-1.4c-1.3-1-2.2-2.3-2.5-3.9h2c0.3,1.1,1,2,2,2.6c1,0.7,2.2,1,3.6,1c1,0,1.9-0.2,2.8-0.7
		c0.8-0.4,1.4-1.1,1.9-1.9c0.5-0.9,0.7-1.9,0.7-3V34c-0.5,1.1-1.3,2-2.4,2.7c-1.1,0.7-2.4,1.1-3.9,1.1c-1.4,0-2.7-0.3-3.9-1
		c-1.1-0.7-2-1.6-2.7-2.9c-0.6-1.2-1-2.7-1-4.3s0.3-3,1-4.3c0.6-1.2,1.5-2.2,2.7-2.8c1.1-0.7,2.4-1,3.9-1
		C206.7,21.4,208,21.8,209.1,22.5z M210.7,26.2c-0.5-1-1.2-1.7-2.1-2.2s-1.9-0.8-3-0.8c-1.1,0-2.1,0.3-3,0.8
		c-0.9,0.5-1.6,1.2-2.1,2.2c-0.5,1-0.8,2.1-0.8,3.4c0,1.3,0.3,2.4,0.8,3.4c0.5,1,1.2,1.7,2.1,2.2c0.9,0.5,1.9,0.8,3,0.8
		c1.1,0,2.1-0.3,3-0.8s1.6-1.3,2.1-2.2c0.5-1,0.8-2.1,0.8-3.4S211.2,27.2,210.7,26.2z"/>
</g>
<g id="Layer_1-2_00000083793494525657549430000005816653835530178688_">
	<path class="st4" d="M46.7,53.8H8.8c-2.3,0-4.1-1.8-4.1-4.1V5.1C4.6,2.8,6.5,1,8.8,1h37.9c2.3,0,4.1,1.8,4.1,4.1v44.5
		C50.8,51.9,49,53.8,46.7,53.8z M8.8,2.6c-1.4,0-2.5,1.1-2.5,2.5v44.5c0,1.4,1.1,2.5,2.5,2.5h37.9c1.4,0,2.5-1.1,2.5-2.5V5.1
		c0-1.4-1.1-2.5-2.5-2.5H8.8z"/>
	<path class="st3" d="M43.4,48.8h-1.6c-1.4,0-2.5-1.1-2.5-2.5V34.8c0-1.4,1.1-2.5,2.5-2.5h1.6c1.4,0,2.5,1.1,2.5,2.5v11.5
		C45.9,47.7,44.8,48.8,43.4,48.8z M41.8,34c-0.5,0-0.8,0.4-0.8,0.8v11.5c0,0.5,0.4,0.8,0.8,0.8h1.6c0.5,0,0.8-0.4,0.8-0.8V34.8
		c0-0.5-0.4-0.8-0.8-0.8H41.8z"/>
	<path class="st5" d="M33.5,38.9h-1.6c-1.4,0-2.5-1.1-2.5-2.5v-1.6c0-1.4,1.1-2.5,2.5-2.5h1.6c1.4,0,2.5,1.1,2.5,2.5v1.6
		C36,37.8,34.9,38.9,33.5,38.9z M31.9,34c-0.5,0-0.8,0.4-0.8,0.8v1.6c0,0.5,0.4,0.8,0.8,0.8h1.6c0.5,0,0.8-0.4,0.8-0.8v-1.6
		c0-0.5-0.4-0.8-0.8-0.8H31.9z"/>
	<path class="st5" d="M23.6,38.9H22c-1.4,0-2.5-1.1-2.5-2.5v-1.6c0-1.4,1.1-2.5,2.5-2.5h1.6c1.4,0,2.5,1.1,2.5,2.5v1.6
		C26.1,37.8,25,38.9,23.6,38.9z M22,34c-0.5,0-0.8,0.4-0.8,0.8v1.6c0,0.5,0.4,0.8,0.8,0.8h1.6c0.5,0,0.8-0.4,0.8-0.8v-1.6
		c0-0.5-0.4-0.8-0.8-0.8H22z"/>
	<path class="st5" d="M13.7,38.9h-1.6c-1.4,0-2.5-1.1-2.5-2.5v-1.6c0-1.4,1.1-2.5,2.5-2.5h1.6c1.4,0,2.5,1.1,2.5,2.5v1.6
		C16.2,37.8,15.1,38.9,13.7,38.9z M12.1,34c-0.5,0-0.8,0.4-0.8,0.8v1.6c0,0.5,0.4,0.8,0.8,0.8h1.6c0.5,0,0.8-0.4,0.8-0.8v-1.6
		c0-0.5-0.4-0.8-0.8-0.8H12.1z"/>
	<path class="st5" d="M33.5,29h-1.6c-1.4,0-2.5-1.1-2.5-2.5v-1.6c0-1.4,1.1-2.5,2.5-2.5h1.6c1.4,0,2.5,1.1,2.5,2.5v1.6
		C36,27.9,34.9,29,33.5,29z M31.9,24.1c-0.5,0-0.8,0.4-0.8,0.8v1.6c0,0.5,0.4,0.8,0.8,0.8h1.6c0.5,0,0.8-0.4,0.8-0.8v-1.6
		c0-0.5-0.4-0.8-0.8-0.8H31.9z"/>
	<path class="st5" d="M43.4,29h-1.6c-1.4,0-2.5-1.1-2.5-2.5v-1.6c0-1.4,1.1-2.5,2.5-2.5h1.6c1.4,0,2.5,1.1,2.5,2.5v1.6
		C45.9,27.9,44.8,29,43.4,29z M41.8,24.1c-0.5,0-0.8,0.4-0.8,0.8v1.6c0,0.5,0.4,0.8,0.8,0.8h1.6c0.5,0,0.8-0.4,0.8-0.8v-1.6
		c0-0.5-0.4-0.8-0.8-0.8H41.8z"/>
	<path class="st5" d="M23.6,29H22c-1.4,0-2.5-1.1-2.5-2.5v-1.6c0-1.4,1.1-2.5,2.5-2.5h1.6c1.4,0,2.5,1.1,2.5,2.5v1.6
		C26.1,27.9,25,29,23.6,29z M22,24.1c-0.5,0-0.8,0.4-0.8,0.8v1.6c0,0.5,0.4,0.8,0.8,0.8h1.6c0.5,0,0.8-0.4,0.8-0.8v-1.6
		c0-0.5-0.4-0.8-0.8-0.8H22z"/>
	<path class="st5" d="M13.7,29h-1.6c-1.4,0-2.5-1.1-2.5-2.5v-1.6c0-1.4,1.1-2.5,2.5-2.5h1.6c1.4,0,2.5,1.1,2.5,2.5v1.6
		C16.2,27.9,15.1,29,13.7,29z M12.1,24.1c-0.5,0-0.8,0.4-0.8,0.8v1.6c0,0.5,0.4,0.8,0.8,0.8h1.6c0.5,0,0.8-0.4,0.8-0.8v-1.6
		c0-0.5-0.4-0.8-0.8-0.8H12.1z"/>
	<path class="st5" d="M13.7,48.8h-1.6c-1.4,0-2.5-1.1-2.5-2.5v-1.6c0-1.4,1.1-2.5,2.5-2.5h1.6c1.4,0,2.5,1.1,2.5,2.5v1.6
		C16.2,47.7,15.1,48.8,13.7,48.8z M12.1,43.9c-0.5,0-0.8,0.4-0.8,0.8v1.6c0,0.5,0.4,0.8,0.8,0.8h1.6c0.5,0,0.8-0.4,0.8-0.8v-1.6
		c0-0.5-0.4-0.8-0.8-0.8H12.1z"/>
	<path class="st5" d="M23.6,48.8H22c-1.4,0-2.5-1.1-2.5-2.5v-1.6c0-1.4,1.1-2.5,2.5-2.5h1.6c1.4,0,2.5,1.1,2.5,2.5v1.6
		C26.1,47.7,25,48.8,23.6,48.8z M22,43.9c-0.5,0-0.8,0.4-0.8,0.8v1.6c0,0.5,0.4,0.8,0.8,0.8h1.6c0.5,0,0.8-0.4,0.8-0.8v-1.6
		c0-0.5-0.4-0.8-0.8-0.8H22z"/>
	<path class="st5" d="M33.5,48.8h-1.6c-1.4,0-2.5-1.1-2.5-2.5v-1.6c0-1.4,1.1-2.5,2.5-2.5h1.6c1.4,0,2.5,1.1,2.5,2.5v1.6
		C36,47.7,34.9,48.8,33.5,48.8z M31.9,43.9c-0.5,0-0.8,0.4-0.8,0.8v1.6c0,0.5,0.4,0.8,0.8,0.8h1.6c0.5,0,0.8-0.4,0.8-0.8v-1.6
		c0-0.5-0.4-0.8-0.8-0.8H31.9z"/>
	<path class="st3" d="M43.4,19.1H12.1c-1.4,0-2.5-1.1-2.5-2.5V8.4c0-1.4,1.1-2.5,2.5-2.5h31.3c1.4,0,2.5,1.1,2.5,2.5v8.2
		C45.9,18,44.8,19.1,43.4,19.1z M12.1,7.6c-0.5,0-0.8,0.4-0.8,0.8v8.2c0,0.5,0.4,0.8,0.8,0.8h31.3c0.5,0,0.8-0.4,0.8-0.8V8.4
		c0-0.5-0.4-0.8-0.8-0.8H12.1z"/>
</g>
</svg>
