<?xml version="1.0" encoding="utf-8"?>
<!-- Generator: Adobe Illustrator 27.0.1, SVG Export Plug-In . SVG Version: 6.00 Build 0)  -->
<svg version="1.0" id="Layer_1" xmlns="http://www.w3.org/2000/svg" xmlns:xlink="http://www.w3.org/1999/xlink" x="0px" y="0px"
	 viewBox="0 0 246 55" style="enable-background:new 0 0 246 55;" xml:space="preserve">
<style type="text/css">
	.st0{fill:#465A65;}
	.st1{fill:#64B0AE;}
	.st2{display:none;}
	.st3{display:inline;fill:#64B0AE;}
	.st4{fill:#DADDE2;}
</style>
<g>
	<path class="st0" d="M112.9,26.4v1.7h-5.6v18.6h-2V28.1h-5.7v-1.7H112.9z"/>
	<path class="st0" d="M118.9,31.4c0.9-0.5,2-0.8,3.4-0.8v2.1h-0.6c-1.5,0-2.6,0.4-3.5,1.2c-0.9,0.8-1.3,2.1-1.3,4v8.8h-2V30.8h2v2.8
		C117.3,32.7,118,31.9,118.9,31.4z"/>
	<path class="st0" d="M124.1,34.4c0.6-1.2,1.5-2.2,2.7-2.8c1.1-0.7,2.4-1,3.9-1c1.5,0,2.8,0.3,3.9,1c1.1,0.7,1.9,1.6,2.4,2.7v-3.5h2
		v15.8h-2v-3.5c-0.5,1.1-1.3,2-2.4,2.7c-1.1,0.7-2.4,1.1-3.9,1.1c-1.4,0-2.7-0.3-3.9-1c-1.1-0.7-2-1.6-2.7-2.9c-0.6-1.2-1-2.7-1-4.3
		S123.5,35.7,124.1,34.4z M136.2,35.4c-0.5-1-1.2-1.7-2.1-2.2s-1.9-0.8-3-0.8c-1.1,0-2.1,0.3-3,0.8c-0.9,0.5-1.6,1.2-2.1,2.2
		c-0.5,1-0.8,2.1-0.8,3.4c0,1.3,0.3,2.4,0.8,3.4c0.5,1,1.2,1.7,2.1,2.2c0.9,0.5,1.9,0.8,3,0.8c1.1,0,2.1-0.3,3-0.8s1.6-1.3,2.1-2.2
		c0.5-1,0.8-2.1,0.8-3.4S136.7,36.3,136.2,35.4z"/>
	<path class="st0" d="M142.5,34.4c0.7-1.2,1.6-2.2,2.7-2.8c1.2-0.7,2.5-1,4-1c2,0,3.6,0.5,4.8,1.4c1.3,1,2.1,2.3,2.4,3.9h-2.2
		c-0.3-1.1-0.9-2-1.8-2.7c-0.9-0.6-2-1-3.3-1c-1.1,0-2,0.2-2.9,0.7c-0.9,0.5-1.5,1.2-2,2.2s-0.7,2.1-0.7,3.5c0,1.4,0.2,2.6,0.7,3.5
		c0.5,1,1.2,1.7,2,2.2c0.9,0.5,1.8,0.7,2.9,0.7c1.3,0,2.4-0.3,3.3-1c0.9-0.6,1.5-1.6,1.8-2.7h2.2c-0.4,1.6-1.2,2.9-2.5,3.9
		c-1.3,1-2.9,1.5-4.8,1.5c-1.5,0-2.8-0.3-4-1c-1.2-0.7-2.1-1.6-2.7-2.8c-0.7-1.2-1-2.7-1-4.3S141.8,35.7,142.5,34.4z"/>
	<path class="st0" d="M167.5,46.7l-6.5-7.1v7.1h-2V25.2h2v12.7l6.4-7.1h2.8l-7.5,7.9l7.6,7.9H167.5z"/>
	<path class="st0" d="M171.6,27.4c-0.3-0.3-0.4-0.6-0.4-1.1c0-0.4,0.1-0.8,0.4-1.1c0.3-0.3,0.6-0.4,1-0.4s0.8,0.1,1,0.4
		c0.3,0.3,0.4,0.6,0.4,1.1c0,0.4-0.1,0.8-0.4,1.1c-0.3,0.3-0.6,0.4-1,0.4S171.9,27.7,171.6,27.4z M173.6,30.8v15.8h-2V30.8H173.6z"
		/>
	<path class="st0" d="M189,32.3c1.2,1.2,1.8,2.9,1.8,5.1v9.3h-2v-9c0-1.7-0.4-3-1.3-3.9c-0.9-0.9-2-1.4-3.5-1.4
		c-1.5,0-2.7,0.5-3.7,1.4c-0.9,1-1.4,2.4-1.4,4.3v8.6h-2V30.8h2v2.7c0.5-1,1.2-1.7,2.2-2.2c0.9-0.5,2-0.8,3.2-0.8
		C186.3,30.5,187.8,31.1,189,32.3z"/>
	<path class="st0" d="M204.6,31.6c1.1,0.7,1.9,1.6,2.4,2.6v-3.4h2v16.2c0,1.4-0.3,2.7-0.9,3.9c-0.6,1.1-1.5,2-2.6,2.6
		s-2.4,0.9-3.8,0.9c-2,0-3.7-0.5-5.1-1.4c-1.3-1-2.2-2.3-2.5-3.9h2c0.3,1.1,1,2,2,2.6c1,0.7,2.2,1,3.6,1c1,0,1.9-0.2,2.8-0.7
		c0.8-0.4,1.4-1.1,1.9-1.9c0.5-0.9,0.7-1.9,0.7-3v-3.9c-0.5,1.1-1.3,2-2.4,2.7c-1.1,0.7-2.4,1.1-3.9,1.1c-1.4,0-2.7-0.3-3.9-1
		c-1.1-0.7-2-1.6-2.7-2.9c-0.6-1.2-1-2.7-1-4.3s0.3-3,1-4.3c0.6-1.2,1.5-2.2,2.7-2.8c1.1-0.7,2.4-1,3.9-1
		C202.2,30.6,203.5,30.9,204.6,31.6z M206.2,35.4c-0.5-1-1.2-1.7-2.1-2.2s-1.9-0.8-3-0.8c-1.1,0-2.1,0.3-3,0.8
		c-0.9,0.5-1.6,1.2-2.1,2.2c-0.5,1-0.8,2.1-0.8,3.4c0,1.3,0.3,2.4,0.8,3.4c0.5,1,1.2,1.7,2.1,2.2c0.9,0.5,1.9,0.8,3,0.8
		c1.1,0,2.1-0.3,3-0.8s1.6-1.3,2.1-2.2c0.5-1,0.8-2.1,0.8-3.4S206.7,36.3,206.2,35.4z"/>
</g>
<g>
	<path class="st1" d="M65.3,6.9c0.9-1.6,2.1-2.8,3.6-3.7c1.5-0.9,3.2-1.3,5-1.3c2.3,0,4.2,0.5,5.8,1.6c1.6,1.1,2.8,2.6,3.5,4.5h-2.4
		c-0.6-1.4-1.5-2.4-2.7-3.2C77,4,75.6,3.7,73.9,3.7c-1.5,0-2.8,0.3-4,1s-2.1,1.7-2.8,3c-0.7,1.3-1,2.8-1,4.5c0,1.7,0.3,3.2,1,4.5
		s1.6,2.3,2.8,3c1.2,0.7,2.5,1,4,1c1.7,0,3.1-0.4,4.3-1.1c1.2-0.8,2.1-1.8,2.7-3.2h2.4c-0.7,1.9-1.9,3.4-3.5,4.5s-3.6,1.6-5.8,1.6
		c-1.9,0-3.5-0.4-5-1.3c-1.5-0.9-2.7-2.1-3.6-3.7S64,14.2,64,12.2S64.4,8.5,65.3,6.9z"/>
	<path class="st1" d="M96.8,7c1,0.5,1.7,1.3,2.3,2.3s0.8,2.3,0.8,3.8v9.3h-2v-9c0-1.7-0.4-3-1.3-3.9C95.7,8.5,94.5,8,93,8
		c-1.5,0-2.7,0.5-3.7,1.4c-0.9,1-1.4,2.4-1.4,4.3v8.6h-2V0.9h2v8.3c0.5-0.9,1.2-1.7,2.2-2.2s2.1-0.8,3.3-0.8
		C94.7,6.3,95.8,6.5,96.8,7z"/>
	<path class="st1" d="M117.3,15.2h-13.1c0.1,1.2,0.3,2.2,0.9,3.1c0.5,0.9,1.2,1.5,2.1,1.9c0.9,0.4,1.8,0.7,2.8,0.7
		c1.3,0,2.4-0.3,3.3-1c0.9-0.6,1.5-1.5,1.8-2.6h2.1c-0.4,1.5-1.2,2.8-2.5,3.8c-1.3,1-2.9,1.5-4.8,1.5c-1.5,0-2.8-0.3-4-1
		s-2.1-1.6-2.8-2.8c-0.7-1.2-1-2.7-1-4.3s0.3-3.1,1-4.3c0.7-1.2,1.6-2.2,2.8-2.8c1.2-0.7,2.5-1,4-1c1.5,0,2.8,0.3,4,1s2,1.5,2.6,2.7
		c0.6,1.1,0.9,2.3,0.9,3.7C117.4,14.3,117.4,14.9,117.3,15.2z M114.6,10.6c-0.5-0.8-1.2-1.5-2-1.9c-0.9-0.4-1.8-0.6-2.8-0.6
		c-1.5,0-2.8,0.5-3.9,1.4c-1.1,1-1.7,2.3-1.8,4.1h11.1C115.4,12.4,115.1,11.4,114.6,10.6z"/>
	<path class="st1" d="M119.9,10.2c0.7-1.2,1.6-2.2,2.7-2.8c1.1-0.7,2.4-1,3.9-1c1.5,0,2.8,0.4,3.9,1.1c1.1,0.7,1.9,1.6,2.3,2.7V6.6
		h2v23.3h-2v-11c-0.5,1.1-1.3,1.9-2.4,2.7s-2.4,1.1-3.9,1.1c-1.4,0-2.7-0.3-3.9-1c-1.1-0.7-2-1.6-2.7-2.9c-0.6-1.2-1-2.7-1-4.3
		S119.3,11.4,119.9,10.2z M132,11.1c-0.5-1-1.2-1.7-2.1-2.2s-1.9-0.8-3-0.8c-1.1,0-2.1,0.3-3,0.8c-0.9,0.5-1.6,1.2-2.1,2.2
		c-0.5,1-0.8,2.1-0.8,3.4c0,1.3,0.3,2.4,0.8,3.4c0.5,1,1.2,1.7,2.1,2.2c0.9,0.5,1.9,0.8,3,0.8c1.1,0,2.1-0.3,3-0.8
		c0.9-0.5,1.6-1.3,2.1-2.2c0.5-1,0.8-2.1,0.8-3.4C132.8,13.2,132.5,12.1,132,11.1z"/>
	<path class="st1" d="M151.9,6.6v15.8h-2v-2.8c-0.5,1-1.2,1.7-2.1,2.3c-1,0.5-2,0.8-3.2,0.8c-1.9,0-3.4-0.6-4.6-1.8
		c-1.2-1.2-1.8-2.9-1.8-5.1V6.6h2v9c0,1.7,0.4,3,1.3,3.9c0.9,0.9,2,1.4,3.5,1.4c1.5,0,2.7-0.5,3.7-1.4c0.9-1,1.4-2.4,1.4-4.3V6.6
		H151.9z"/>
	<path class="st1" d="M169.5,15.2h-13.1c0.1,1.2,0.3,2.2,0.9,3.1c0.5,0.9,1.2,1.5,2.1,1.9c0.9,0.4,1.8,0.7,2.8,0.7
		c1.3,0,2.4-0.3,3.3-1c0.9-0.6,1.5-1.5,1.8-2.6h2.1c-0.4,1.5-1.2,2.8-2.5,3.8c-1.3,1-2.9,1.5-4.8,1.5c-1.5,0-2.8-0.3-4-1
		s-2.1-1.6-2.8-2.8c-0.7-1.2-1-2.7-1-4.3s0.3-3.1,1-4.3c0.7-1.2,1.6-2.2,2.8-2.8c1.2-0.7,2.5-1,4-1c1.5,0,2.8,0.3,4,1s2,1.5,2.6,2.7
		c0.6,1.1,0.9,2.3,0.9,3.7C169.6,14.3,169.6,14.9,169.5,15.2z M166.8,10.6c-0.5-0.8-1.2-1.5-2-1.9C164,8.3,163,8.1,162,8.1
		c-1.5,0-2.8,0.5-3.9,1.4c-1.1,1-1.7,2.3-1.8,4.1h11.1C167.6,12.4,167.3,11.4,166.8,10.6z"/>
</g>
<g class="st2">
	<path class="st3" d="M76.5,32.7h-9.2l-1.8,4.8h-2.1l7.4-20h2.3l7.4,20h-2.1L76.5,32.7z M75.9,31l-4-11l-4,11H75.9z"/>
	<path class="st3" d="M82.5,25.2c0.7-1.2,1.6-2.2,2.7-2.8c1.2-0.7,2.5-1,4-1c2,0,3.6,0.5,4.8,1.4c1.3,1,2.1,2.3,2.4,3.9h-2.2
		c-0.3-1.1-0.9-2-1.8-2.7c-0.9-0.6-2-1-3.3-1c-1.1,0-2,0.2-2.9,0.7c-0.9,0.5-1.5,1.2-2,2.2s-0.7,2.1-0.7,3.5c0,1.4,0.2,2.6,0.7,3.5
		c0.5,1,1.2,1.7,2,2.2c0.9,0.5,1.8,0.7,2.9,0.7c1.3,0,2.4-0.3,3.3-1c0.9-0.6,1.5-1.6,1.8-2.7h2.2c-0.4,1.6-1.2,2.9-2.5,3.9
		c-1.3,1-2.9,1.5-4.8,1.5c-1.5,0-2.8-0.3-4-1c-1.2-0.7-2.1-1.6-2.7-2.8c-0.7-1.2-1-2.7-1-4.3S81.8,26.5,82.5,25.2z"/>
	<path class="st3" d="M99,25.2c0.7-1.2,1.6-2.2,2.7-2.8c1.2-0.7,2.5-1,4-1c2,0,3.6,0.5,4.8,1.4c1.3,1,2.1,2.3,2.4,3.9h-2.2
		c-0.3-1.1-0.9-2-1.8-2.7c-0.9-0.6-2-1-3.3-1c-1.1,0-2,0.2-2.9,0.7c-0.9,0.5-1.5,1.2-2,2.2s-0.7,2.1-0.7,3.5c0,1.4,0.2,2.6,0.7,3.5
		c0.5,1,1.2,1.7,2,2.2c0.9,0.5,1.8,0.7,2.9,0.7c1.3,0,2.4-0.3,3.3-1c0.9-0.6,1.5-1.6,1.8-2.7h2.2c-0.4,1.6-1.2,2.9-2.5,3.9
		c-1.3,1-2.9,1.5-4.8,1.5c-1.5,0-2.8-0.3-4-1c-1.2-0.7-2.1-1.6-2.7-2.8c-0.7-1.2-1-2.7-1-4.3S98.3,26.5,99,25.2z"/>
	<path class="st3" d="M118.4,36.7c-1.2-0.7-2.1-1.6-2.8-2.8c-0.7-1.2-1-2.7-1-4.3s0.3-3.1,1-4.3c0.7-1.2,1.6-2.2,2.8-2.8
		c1.2-0.7,2.5-1,4-1s2.8,0.3,4,1c1.2,0.7,2.2,1.6,2.8,2.8c0.7,1.2,1,2.7,1,4.3c0,1.6-0.3,3.1-1,4.3c-0.7,1.2-1.7,2.2-2.9,2.9
		c-1.2,0.7-2.6,1-4.1,1C120.9,37.7,119.6,37.4,118.4,36.7z M125.3,35.2c0.9-0.5,1.6-1.2,2.2-2.1c0.6-1,0.8-2.1,0.8-3.5
		c0-1.4-0.3-2.6-0.8-3.5c-0.5-1-1.3-1.7-2.1-2.1c-0.9-0.5-1.9-0.7-2.9-0.7s-2,0.2-2.9,0.7s-1.6,1.2-2.1,2.1c-0.5,1-0.8,2.1-0.8,3.5
		c0,1.4,0.3,2.6,0.8,3.5c0.5,1,1.2,1.7,2.1,2.1c0.9,0.5,1.8,0.7,2.9,0.7C123.4,35.9,124.4,35.7,125.3,35.2z"/>
	<path class="st3" d="M146.5,21.6v15.8h-2v-2.8c-0.5,1-1.2,1.7-2.1,2.3c-1,0.5-2,0.8-3.2,0.8c-1.9,0-3.4-0.6-4.6-1.8
		c-1.2-1.2-1.8-2.9-1.8-5.1v-9.2h2v9c0,1.7,0.4,3,1.3,3.9c0.9,0.9,2,1.4,3.5,1.4c1.5,0,2.7-0.5,3.7-1.4s1.4-2.4,1.4-4.3v-8.6H146.5z
		"/>
	<path class="st3" d="M162,23.1c1.2,1.2,1.8,2.9,1.8,5.1v9.3h-2v-9c0-1.7-0.4-3-1.3-3.9c-0.9-0.9-2-1.4-3.5-1.4
		c-1.5,0-2.7,0.5-3.7,1.4c-0.9,1-1.4,2.4-1.4,4.3v8.6h-2V21.6h2v2.7c0.5-1,1.2-1.7,2.2-2.2c0.9-0.5,2-0.8,3.2-0.8
		C159.2,21.4,160.8,21.9,162,23.1z"/>
	<path class="st3" d="M169.7,23.4v9.8c0,1,0.2,1.6,0.6,2c0.4,0.4,1,0.6,1.9,0.6h1.9v1.7h-2.2c-1.4,0-2.5-0.3-3.2-1
		c-0.7-0.7-1-1.8-1-3.3v-9.8h-2.2v-1.7h2.2v-4h2.1v4h4.3v1.7H169.7z"/>
	<path class="st3" d="M176.1,18.2c-0.3-0.3-0.4-0.6-0.4-1.1c0-0.4,0.1-0.8,0.4-1.1c0.3-0.3,0.6-0.4,1-0.4s0.8,0.1,1,0.4
		c0.3,0.3,0.4,0.6,0.4,1.1c0,0.4-0.1,0.8-0.4,1.1c-0.3,0.3-0.6,0.4-1,0.4S176.3,18.5,176.1,18.2z M178.1,21.6v15.8h-2V21.6H178.1z"
		/>
	<path class="st3" d="M193.5,23.1c1.2,1.2,1.8,2.9,1.8,5.1v9.3h-2v-9c0-1.7-0.4-3-1.3-3.9c-0.9-0.9-2-1.4-3.5-1.4
		c-1.5,0-2.7,0.5-3.7,1.4c-0.9,1-1.4,2.4-1.4,4.3v8.6h-2V21.6h2v2.7c0.5-1,1.2-1.7,2.2-2.2c0.9-0.5,2-0.8,3.2-0.8
		C190.8,21.4,192.3,21.9,193.5,23.1z"/>
	<path class="st3" d="M209.1,22.5c1.1,0.7,1.9,1.6,2.4,2.6v-3.4h2v16.2c0,1.4-0.3,2.7-0.9,3.9c-0.6,1.1-1.5,2-2.6,2.6
		s-2.4,0.9-3.8,0.9c-2,0-3.7-0.5-5.1-1.4c-1.3-1-2.2-2.3-2.5-3.9h2c0.3,1.1,1,2,2,2.6c1,0.7,2.2,1,3.6,1c1,0,1.9-0.2,2.8-0.7
		c0.8-0.4,1.4-1.1,1.9-1.9c0.5-0.9,0.7-1.9,0.7-3V34c-0.5,1.1-1.3,2-2.4,2.7c-1.1,0.7-2.4,1.1-3.9,1.1c-1.4,0-2.7-0.3-3.9-1
		c-1.1-0.7-2-1.6-2.7-2.9c-0.6-1.2-1-2.7-1-4.3s0.3-3,1-4.3c0.6-1.2,1.5-2.2,2.7-2.8c1.1-0.7,2.4-1,3.9-1
		C206.7,21.4,208,21.8,209.1,22.5z M210.7,26.2c-0.5-1-1.2-1.7-2.1-2.2s-1.9-0.8-3-0.8c-1.1,0-2.1,0.3-3,0.8
		c-0.9,0.5-1.6,1.2-2.1,2.2c-0.5,1-0.8,2.1-0.8,3.4c0,1.3,0.3,2.4,0.8,3.4c0.5,1,1.2,1.7,2.1,2.2c0.9,0.5,1.9,0.8,3,0.8
		c1.1,0,2.1-0.3,3-0.8s1.6-1.3,2.1-2.2c0.5-1,0.8-2.1,0.8-3.4S211.2,27.2,210.7,26.2z"/>
</g>
<g id="Layer_1-2_00000031907811168266889450000011627138447233106057_">
	<path class="st4" d="M15.4,39.4h-8c-0.4,0-0.8-0.4-0.8-0.8V21c0-0.4,0.4-0.8,0.8-0.8h8c0.4,0,0.8,0.4,0.8,0.8v17.6
		C16.2,39,15.8,39.4,15.4,39.4z M8.2,37.8h6.4v-16H8.2V37.8z"/>
	<path class="st4" d="M31.4,39.4h-8c-0.4,0-0.8-0.4-0.8-0.8V21c0-0.4,0.4-0.8,0.8-0.8h8c0.4,0,0.8,0.4,0.8,0.8v17.6
		C32.2,39,31.8,39.4,31.4,39.4z M24.2,37.8h6.4v-16h-6.4V37.8z"/>
	<path class="st4" d="M47.4,39.4h-8c-0.4,0-0.8-0.4-0.8-0.8V21c0-0.4,0.4-0.8,0.8-0.8h8c0.4,0,0.8,0.4,0.8,0.8v17.6
		C48.2,39,47.8,39.4,47.4,39.4z M40.2,37.8h6.4v-16h-6.4V37.8z"/>
	<path class="st1" d="M15.4,21.8h-8c-1.3,0-2.4-1.1-2.4-2.4v-1.6C5,17.3,5.4,17,5.8,17H17c0.4,0,0.8,0.4,0.8,0.8v1.6
		C17.8,20.7,16.7,21.8,15.4,21.8z M6.6,18.6v0.8c0,0.4,0.4,0.8,0.8,0.8h8c0.4,0,0.8-0.4,0.8-0.8v-0.8H6.6z"/>
	<path class="st1" d="M17,42.6H5.8c-0.4,0-0.8-0.4-0.8-0.8v-1.6c0-1.3,1.1-2.4,2.4-2.4h8c1.3,0,2.4,1.1,2.4,2.4v1.6
		C17.8,42.2,17.4,42.6,17,42.6z M6.6,41h9.6v-0.8c0-0.4-0.4-0.8-0.8-0.8h-8c-0.4,0-0.8,0.4-0.8,0.8V41z"/>
	<path class="st1" d="M31.4,21.8h-8c-1.3,0-2.4-1.1-2.4-2.4v-1.6c0-0.4,0.4-0.8,0.8-0.8H33c0.4,0,0.8,0.4,0.8,0.8v1.6
		C33.8,20.7,32.7,21.8,31.4,21.8z M22.6,18.6v0.8c0,0.4,0.4,0.8,0.8,0.8h8c0.4,0,0.8-0.4,0.8-0.8v-0.8H22.6z"/>
	<path class="st1" d="M33,42.6H21.8c-0.4,0-0.8-0.4-0.8-0.8v-1.6c0-1.3,1.1-2.4,2.4-2.4h8c1.3,0,2.4,1.1,2.4,2.4v1.6
		C33.8,42.2,33.4,42.6,33,42.6z M22.6,41h9.6v-0.8c0-0.4-0.4-0.8-0.8-0.8h-8c-0.4,0-0.8,0.4-0.8,0.8V41z"/>
	<path class="st1" d="M47.4,21.8h-8c-1.3,0-2.4-1.1-2.4-2.4v-1.6c0-0.4,0.4-0.8,0.8-0.8H49c0.4,0,0.8,0.4,0.8,0.8v1.6
		C49.8,20.7,48.7,21.8,47.4,21.8z M38.6,18.6v0.8c0,0.4,0.4,0.8,0.8,0.8h8c0.4,0,0.8-0.4,0.8-0.8v-0.8H38.6z"/>
	<path class="st1" d="M49,42.6H37.8c-0.4,0-0.8-0.4-0.8-0.8v-1.6c0-1.3,1.1-2.4,2.4-2.4h8c1.3,0,2.4,1.1,2.4,2.4v1.6
		C49.8,42.2,49.4,42.6,49,42.6z M38.6,41h9.6v-0.8c0-0.4-0.4-0.8-0.8-0.8h-8c-0.4,0-0.8,0.4-0.8,0.8V41z"/>
	<path class="st0" d="M52.2,18.6H2.6c-0.4,0-0.7-0.2-0.8-0.6c-0.1-0.3,0-0.7,0.3-0.9L22.6,2.5c2.8-2,6.8-2,9.6,0l20.4,14.6
		c0.3,0.2,0.4,0.6,0.3,0.9C52.9,18.4,52.6,18.6,52.2,18.6L52.2,18.6z M5.1,17h44.6L31.3,3.8c-2.3-1.6-5.5-1.6-7.8,0l0,0L5.1,17z
		 M23,3.2L23,3.2z"/>
	<path class="st0" d="M50.6,45.8H4.2c-0.4,0-0.8-0.4-0.8-0.8v-1.6C3.4,42,4.5,41,5.8,41H49c1.3,0,2.4,1.1,2.4,2.4V45
		C51.4,45.4,51,45.8,50.6,45.8z M5,44.2h44.8v-0.8c0-0.4-0.4-0.8-0.8-0.8H5.8c-0.4,0-0.8,0.4-0.8,0.8V44.2z"/>
	<path class="st0" d="M52.2,49H2.6c-0.4,0-0.8-0.4-0.8-0.8v-1.6c0-1.3,1.1-2.4,2.4-2.4h46.4c1.3,0,2.4,1.1,2.4,2.4v1.6
		C53,48.6,52.6,49,52.2,49z M3.4,47.4h48v-0.8c0-0.4-0.4-0.8-0.8-0.8H4.2c-0.4,0-0.8,0.4-0.8,0.8V47.4z"/>
</g>
</svg>
