<?xml version="1.0" encoding="utf-8"?>
<!-- Generator: Adobe Illustrator 27.0.1, SVG Export Plug-In . SVG Version: 6.00 Build 0)  -->
<svg version="1.0" id="Layer_1" xmlns="http://www.w3.org/2000/svg" xmlns:xlink="http://www.w3.org/1999/xlink" x="0px" y="0px"
	 viewBox="0 0 246 55" style="enable-background:new 0 0 246 55;" xml:space="preserve">
<style type="text/css">
	.st0{fill:#465A65;}
	.st1{fill:#64B0AE;}
	.st2{display:none;}
	.st3{display:inline;fill:#64B0AE;}
	.st4{fill:#DADDE2;}
</style>
<g>
	<path class="st0" d="M85.8,26.7v20h-2v-16l-7.1,16h-1.5L68,30.7v15.9h-2v-20h2.1L75.9,44l7.7-17.3H85.8z"/>
	<path class="st0" d="M89.2,34.4c0.6-1.2,1.5-2.2,2.7-2.8c1.1-0.7,2.4-1,3.9-1c1.5,0,2.8,0.3,3.9,1c1.1,0.7,1.9,1.6,2.4,2.7v-3.5h2
		v15.8h-2v-3.5c-0.5,1.1-1.3,2-2.4,2.7c-1.1,0.7-2.4,1.1-3.9,1.1c-1.4,0-2.7-0.3-3.9-1c-1.1-0.7-2-1.6-2.7-2.9c-0.6-1.2-1-2.7-1-4.3
		S88.6,35.7,89.2,34.4z M101.3,35.4c-0.5-1-1.2-1.7-2.1-2.2s-1.9-0.8-3-0.8c-1.1,0-2.1,0.3-3,0.8c-0.9,0.5-1.6,1.2-2.1,2.2
		c-0.5,1-0.8,2.1-0.8,3.4c0,1.3,0.3,2.4,0.8,3.4c0.5,1,1.2,1.7,2.1,2.2c0.9,0.5,1.9,0.8,3,0.8c1.1,0,2.1-0.3,3-0.8s1.6-1.3,2.1-2.2
		c0.5-1,0.8-2.1,0.8-3.4S101.8,36.3,101.3,35.4z"/>
	<path class="st0" d="M119.5,32.3c1.2,1.2,1.8,2.9,1.8,5.1v9.3h-2v-9c0-1.7-0.4-3-1.3-3.9c-0.9-0.9-2-1.4-3.5-1.4
		c-1.5,0-2.7,0.5-3.7,1.4c-0.9,1-1.4,2.4-1.4,4.3v8.6h-2V30.8h2v2.7c0.5-1,1.2-1.7,2.2-2.2c0.9-0.5,2-0.8,3.2-0.8
		C116.8,30.5,118.4,31.1,119.5,32.3z"/>
	<path class="st0" d="M124.6,34.4c0.6-1.2,1.5-2.2,2.7-2.8c1.1-0.7,2.4-1,3.9-1c1.5,0,2.8,0.3,3.9,1c1.1,0.7,1.9,1.6,2.4,2.7v-3.5h2
		v15.8h-2v-3.5c-0.5,1.1-1.3,2-2.4,2.7c-1.1,0.7-2.4,1.1-3.9,1.1c-1.4,0-2.7-0.3-3.9-1c-1.1-0.7-2-1.6-2.7-2.9c-0.6-1.2-1-2.7-1-4.3
		S124,35.7,124.6,34.4z M136.7,35.4c-0.5-1-1.2-1.7-2.1-2.2s-1.9-0.8-3-0.8c-1.1,0-2.1,0.3-3,0.8c-0.9,0.5-1.6,1.2-2.1,2.2
		c-0.5,1-0.8,2.1-0.8,3.4c0,1.3,0.3,2.4,0.8,3.4c0.5,1,1.2,1.7,2.1,2.2c0.9,0.5,1.9,0.8,3,0.8c1.1,0,2.1-0.3,3-0.8s1.6-1.3,2.1-2.2
		c0.5-1,0.8-2.1,0.8-3.4S137.2,36.3,136.7,35.4z"/>
	<path class="st0" d="M153.4,31.6c1.1,0.7,1.9,1.6,2.4,2.6v-3.4h2v16.2c0,1.4-0.3,2.7-0.9,3.9c-0.6,1.1-1.5,2-2.6,2.6
		s-2.4,0.9-3.8,0.9c-2,0-3.7-0.5-5.1-1.4c-1.3-1-2.2-2.3-2.5-3.9h2c0.3,1.1,1,2,2,2.6c1,0.7,2.2,1,3.6,1c1,0,1.9-0.2,2.8-0.7
		c0.8-0.4,1.4-1.1,1.9-1.9c0.5-0.9,0.7-1.9,0.7-3v-3.9c-0.5,1.1-1.3,2-2.4,2.7c-1.1,0.7-2.4,1.1-3.9,1.1c-1.4,0-2.7-0.3-3.9-1
		c-1.1-0.7-2-1.6-2.7-2.9c-0.6-1.2-1-2.7-1-4.3s0.3-3,1-4.3c0.6-1.2,1.5-2.2,2.7-2.8c1.1-0.7,2.4-1,3.9-1
		C151,30.6,152.3,30.9,153.4,31.6z M155,35.4c-0.5-1-1.2-1.7-2.1-2.2s-1.9-0.8-3-0.8c-1.1,0-2.1,0.3-3,0.8c-0.9,0.5-1.6,1.2-2.1,2.2
		c-0.5,1-0.8,2.1-0.8,3.4c0,1.3,0.3,2.4,0.8,3.4c0.5,1,1.2,1.7,2.1,2.2c0.9,0.5,1.9,0.8,3,0.8c1.1,0,2.1-0.3,3-0.8s1.6-1.3,2.1-2.2
		c0.5-1,0.8-2.1,0.8-3.4S155.5,36.3,155,35.4z"/>
	<path class="st0" d="M175.5,39.5h-13.1c0.1,1.2,0.3,2.2,0.9,3.1c0.5,0.9,1.2,1.5,2.1,1.9c0.9,0.4,1.8,0.7,2.8,0.7
		c1.3,0,2.4-0.3,3.3-1s1.5-1.5,1.8-2.6h2.1c-0.4,1.5-1.2,2.8-2.5,3.8c-1.3,1-2.9,1.5-4.8,1.5c-1.5,0-2.8-0.3-4-1
		c-1.2-0.7-2.1-1.6-2.8-2.8c-0.7-1.2-1-2.7-1-4.3s0.3-3.1,1-4.3c0.7-1.2,1.6-2.2,2.8-2.8c1.2-0.7,2.5-1,4-1c1.5,0,2.8,0.3,4,1
		c1.1,0.7,2,1.5,2.6,2.7c0.6,1.1,0.9,2.3,0.9,3.7C175.5,38.6,175.5,39.2,175.5,39.5z M172.8,34.9c-0.5-0.8-1.2-1.5-2-1.9
		c-0.9-0.4-1.8-0.6-2.8-0.6c-1.5,0-2.8,0.5-3.9,1.4c-1.1,1-1.7,2.3-1.8,4.1h11.1C173.5,36.7,173.3,35.7,172.8,34.9z"/>
	<path class="st0" d="M201.4,32.3c1.2,1.2,1.8,2.9,1.8,5.1v9.3h-2v-9c0-1.7-0.4-3-1.2-3.9s-2-1.4-3.4-1.4c-1.5,0-2.7,0.5-3.6,1.5
		c-0.9,1-1.3,2.4-1.3,4.3v8.6h-2v-9c0-1.7-0.4-3-1.2-3.9c-0.8-0.9-2-1.4-3.4-1.4c-1.5,0-2.7,0.5-3.6,1.5c-0.9,1-1.3,2.4-1.3,4.3v8.6
		h-2V30.8h2v2.7c0.5-1,1.2-1.7,2.1-2.2c0.9-0.5,2-0.8,3.1-0.8c1.4,0,2.6,0.3,3.6,1c1,0.7,1.8,1.6,2.2,2.9c0.4-1.3,1.2-2.2,2.2-2.9
		c1-0.7,2.2-1,3.5-1C198.7,30.5,200.2,31.1,201.4,32.3z"/>
	<path class="st0" d="M220.6,39.5h-13.1c0.1,1.2,0.3,2.2,0.9,3.1c0.5,0.9,1.2,1.5,2.1,1.9c0.9,0.4,1.8,0.7,2.8,0.7
		c1.3,0,2.4-0.3,3.3-1s1.5-1.5,1.8-2.6h2.1c-0.4,1.5-1.2,2.8-2.5,3.8c-1.3,1-2.9,1.5-4.8,1.5c-1.5,0-2.8-0.3-4-1
		c-1.2-0.7-2.1-1.6-2.8-2.8c-0.7-1.2-1-2.7-1-4.3s0.3-3.1,1-4.3c0.7-1.2,1.6-2.2,2.8-2.8c1.2-0.7,2.5-1,4-1c1.5,0,2.8,0.3,4,1
		c1.1,0.7,2,1.5,2.6,2.7c0.6,1.1,0.9,2.3,0.9,3.7C220.7,38.6,220.7,39.2,220.6,39.5z M217.9,34.9c-0.5-0.8-1.2-1.5-2-1.9
		c-0.9-0.4-1.8-0.6-2.8-0.6c-1.5,0-2.8,0.5-3.9,1.4c-1.1,1-1.7,2.3-1.8,4.1h11.1C218.7,36.7,218.4,35.7,217.9,34.9z"/>
	<path class="st0" d="M235.2,32.3c1.2,1.2,1.8,2.9,1.8,5.1v9.3h-2v-9c0-1.7-0.4-3-1.3-3.9c-0.9-0.9-2-1.4-3.5-1.4
		c-1.5,0-2.7,0.5-3.7,1.4c-0.9,1-1.4,2.4-1.4,4.3v8.6h-2V30.8h2v2.7c0.5-1,1.2-1.7,2.2-2.2c0.9-0.5,2-0.8,3.2-0.8
		C232.5,30.5,234,31.1,235.2,32.3z"/>
	<path class="st0" d="M242.9,32.5v9.8c0,1,0.2,1.6,0.6,2c0.4,0.4,1,0.6,1.9,0.6h1.9v1.7h-2.2c-1.4,0-2.5-0.3-3.2-1
		c-0.7-0.7-1-1.8-1-3.3v-9.8h-2.2v-1.7h2.2v-4h2.1v4h4.3v1.7H242.9z"/>
</g>
<g>
	<path class="st1" d="M65.3,6.9c0.9-1.6,2.1-2.8,3.6-3.7c1.5-0.9,3.2-1.3,5-1.3c2.3,0,4.2,0.5,5.8,1.6c1.6,1.1,2.8,2.6,3.5,4.5h-2.4
		c-0.6-1.4-1.5-2.4-2.7-3.2C77,4,75.6,3.7,73.9,3.7c-1.5,0-2.8,0.3-4,1s-2.1,1.7-2.8,3c-0.7,1.3-1,2.8-1,4.5c0,1.7,0.3,3.2,1,4.5
		s1.6,2.3,2.8,3c1.2,0.7,2.5,1,4,1c1.7,0,3.1-0.4,4.3-1.1c1.2-0.8,2.1-1.8,2.7-3.2h2.4c-0.7,1.9-1.9,3.4-3.5,4.5s-3.6,1.6-5.8,1.6
		c-1.9,0-3.5-0.4-5-1.3c-1.5-0.9-2.7-2.1-3.6-3.7S64,14.2,64,12.2S64.4,8.5,65.3,6.9z"/>
	<path class="st1" d="M88,0.9v21.4h-2V0.9H88z"/>
	<path class="st1" d="M91.3,3.1c-0.3-0.3-0.4-0.6-0.4-1.1s0.1-0.8,0.4-1.1c0.3-0.3,0.6-0.4,1-0.4s0.8,0.1,1,0.4
		c0.3,0.3,0.4,0.6,0.4,1.1s-0.1,0.8-0.4,1.1c-0.3,0.3-0.6,0.4-1,0.4S91.6,3.4,91.3,3.1z M93.4,6.6v15.8h-2V6.6H93.4z"/>
	<path class="st1" d="M111,15.2H97.9c0.1,1.2,0.3,2.2,0.9,3.1c0.5,0.9,1.2,1.5,2.1,1.9c0.9,0.4,1.8,0.7,2.8,0.7c1.3,0,2.4-0.3,3.3-1
		c0.9-0.6,1.5-1.5,1.8-2.6h2.1c-0.4,1.5-1.2,2.8-2.5,3.8c-1.3,1-2.9,1.5-4.8,1.5c-1.5,0-2.8-0.3-4-1s-2.1-1.6-2.8-2.8
		c-0.7-1.2-1-2.7-1-4.3s0.3-3.1,1-4.3c0.7-1.2,1.6-2.2,2.8-2.8c1.2-0.7,2.5-1,4-1c1.5,0,2.8,0.3,4,1s2,1.5,2.6,2.7
		c0.6,1.1,0.9,2.3,0.9,3.7C111.1,14.3,111.1,14.9,111,15.2z M108.3,10.6c-0.5-0.8-1.2-1.5-2-1.9c-0.9-0.4-1.8-0.6-2.8-0.6
		c-1.5,0-2.8,0.5-3.9,1.4c-1.1,1-1.7,2.3-1.8,4.1H109C109,12.4,108.8,11.4,108.3,10.6z"/>
	<path class="st1" d="M125.6,8c1.2,1.2,1.8,2.9,1.8,5.1v9.3h-2v-9c0-1.7-0.4-3-1.3-3.9c-0.9-0.9-2-1.4-3.5-1.4
		c-1.5,0-2.7,0.5-3.7,1.4c-0.9,1-1.4,2.4-1.4,4.3v8.6h-2V6.6h2v2.7c0.5-1,1.2-1.7,2.2-2.2c0.9-0.5,2-0.8,3.2-0.8
		C122.9,6.3,124.4,6.8,125.6,8z"/>
	<path class="st1" d="M133.3,8.3v9.8c0,1,0.2,1.6,0.6,2c0.4,0.4,1,0.6,1.9,0.6h1.9v1.7h-2.2c-1.4,0-2.5-0.3-3.2-1
		c-0.7-0.7-1-1.8-1-3.3V8.3H129V6.6h2.2v-4h2.1v4h4.3v1.7H133.3z"/>
</g>
<g class="st2">
	<path class="st3" d="M76.5,32.7h-9.2l-1.8,4.8h-2.1l7.4-20h2.3l7.4,20h-2.1L76.5,32.7z M75.9,31l-4-11l-4,11H75.9z"/>
	<path class="st3" d="M82.5,25.2c0.7-1.2,1.6-2.2,2.7-2.8c1.2-0.7,2.5-1,4-1c2,0,3.6,0.5,4.8,1.4c1.3,1,2.1,2.3,2.4,3.9h-2.2
		c-0.3-1.1-0.9-2-1.8-2.7c-0.9-0.6-2-1-3.3-1c-1.1,0-2,0.2-2.9,0.7c-0.9,0.5-1.5,1.2-2,2.2s-0.7,2.1-0.7,3.5c0,1.4,0.2,2.6,0.7,3.5
		c0.5,1,1.2,1.7,2,2.2c0.9,0.5,1.8,0.7,2.9,0.7c1.3,0,2.4-0.3,3.3-1c0.9-0.6,1.5-1.6,1.8-2.7h2.2c-0.4,1.6-1.2,2.9-2.5,3.9
		c-1.3,1-2.9,1.5-4.8,1.5c-1.5,0-2.8-0.3-4-1c-1.2-0.7-2.1-1.6-2.7-2.8c-0.7-1.2-1-2.7-1-4.3S81.8,26.5,82.5,25.2z"/>
	<path class="st3" d="M99,25.2c0.7-1.2,1.6-2.2,2.7-2.8c1.2-0.7,2.5-1,4-1c2,0,3.6,0.5,4.8,1.4c1.3,1,2.1,2.3,2.4,3.9h-2.2
		c-0.3-1.1-0.9-2-1.8-2.7c-0.9-0.6-2-1-3.3-1c-1.1,0-2,0.2-2.9,0.7c-0.9,0.5-1.5,1.2-2,2.2s-0.7,2.1-0.7,3.5c0,1.4,0.2,2.6,0.7,3.5
		c0.5,1,1.2,1.7,2,2.2c0.9,0.5,1.8,0.7,2.9,0.7c1.3,0,2.4-0.3,3.3-1c0.9-0.6,1.5-1.6,1.8-2.7h2.2c-0.4,1.6-1.2,2.9-2.5,3.9
		c-1.3,1-2.9,1.5-4.8,1.5c-1.5,0-2.8-0.3-4-1c-1.2-0.7-2.1-1.6-2.7-2.8c-0.7-1.2-1-2.7-1-4.3S98.3,26.5,99,25.2z"/>
	<path class="st3" d="M118.4,36.7c-1.2-0.7-2.1-1.6-2.8-2.8c-0.7-1.2-1-2.7-1-4.3s0.3-3.1,1-4.3c0.7-1.2,1.6-2.2,2.8-2.8
		c1.2-0.7,2.5-1,4-1s2.8,0.3,4,1c1.2,0.7,2.2,1.6,2.8,2.8c0.7,1.2,1,2.7,1,4.3c0,1.6-0.3,3.1-1,4.3c-0.7,1.2-1.7,2.2-2.9,2.9
		c-1.2,0.7-2.6,1-4.1,1C120.9,37.7,119.6,37.4,118.4,36.7z M125.3,35.2c0.9-0.5,1.6-1.2,2.2-2.1c0.6-1,0.8-2.1,0.8-3.5
		c0-1.4-0.3-2.6-0.8-3.5c-0.5-1-1.3-1.7-2.1-2.1c-0.9-0.5-1.9-0.7-2.9-0.7s-2,0.2-2.9,0.7s-1.6,1.2-2.1,2.1c-0.5,1-0.8,2.1-0.8,3.5
		c0,1.4,0.3,2.6,0.8,3.5c0.5,1,1.2,1.7,2.1,2.1c0.9,0.5,1.8,0.7,2.9,0.7C123.4,35.9,124.4,35.7,125.3,35.2z"/>
	<path class="st3" d="M146.5,21.6v15.8h-2v-2.8c-0.5,1-1.2,1.7-2.1,2.3c-1,0.5-2,0.8-3.2,0.8c-1.9,0-3.4-0.6-4.6-1.8
		c-1.2-1.2-1.8-2.9-1.8-5.1v-9.2h2v9c0,1.7,0.4,3,1.3,3.9c0.9,0.9,2,1.4,3.5,1.4c1.5,0,2.7-0.5,3.7-1.4s1.4-2.4,1.4-4.3v-8.6H146.5z
		"/>
	<path class="st3" d="M162,23.1c1.2,1.2,1.8,2.9,1.8,5.1v9.3h-2v-9c0-1.7-0.4-3-1.3-3.9c-0.9-0.9-2-1.4-3.5-1.4
		c-1.5,0-2.7,0.5-3.7,1.4c-0.9,1-1.4,2.4-1.4,4.3v8.6h-2V21.6h2v2.7c0.5-1,1.2-1.7,2.2-2.2c0.9-0.5,2-0.8,3.2-0.8
		C159.2,21.4,160.8,21.9,162,23.1z"/>
	<path class="st3" d="M169.7,23.4v9.8c0,1,0.2,1.6,0.6,2c0.4,0.4,1,0.6,1.9,0.6h1.9v1.7h-2.2c-1.4,0-2.5-0.3-3.2-1
		c-0.7-0.7-1-1.8-1-3.3v-9.8h-2.2v-1.7h2.2v-4h2.1v4h4.3v1.7H169.7z"/>
	<path class="st3" d="M176.1,18.2c-0.3-0.3-0.4-0.6-0.4-1.1c0-0.4,0.1-0.8,0.4-1.1c0.3-0.3,0.6-0.4,1-0.4s0.8,0.1,1,0.4
		c0.3,0.3,0.4,0.6,0.4,1.1c0,0.4-0.1,0.8-0.4,1.1c-0.3,0.3-0.6,0.4-1,0.4S176.3,18.5,176.1,18.2z M178.1,21.6v15.8h-2V21.6H178.1z"
		/>
	<path class="st3" d="M193.5,23.1c1.2,1.2,1.8,2.9,1.8,5.1v9.3h-2v-9c0-1.7-0.4-3-1.3-3.9c-0.9-0.9-2-1.4-3.5-1.4
		c-1.5,0-2.7,0.5-3.7,1.4c-0.9,1-1.4,2.4-1.4,4.3v8.6h-2V21.6h2v2.7c0.5-1,1.2-1.7,2.2-2.2c0.9-0.5,2-0.8,3.2-0.8
		C190.8,21.4,192.3,21.9,193.5,23.1z"/>
	<path class="st3" d="M209.1,22.5c1.1,0.7,1.9,1.6,2.4,2.6v-3.4h2v16.2c0,1.4-0.3,2.7-0.9,3.9c-0.6,1.1-1.5,2-2.6,2.6
		s-2.4,0.9-3.8,0.9c-2,0-3.7-0.5-5.1-1.4c-1.3-1-2.2-2.3-2.5-3.9h2c0.3,1.1,1,2,2,2.6c1,0.7,2.2,1,3.6,1c1,0,1.9-0.2,2.8-0.7
		c0.8-0.4,1.4-1.1,1.9-1.9c0.5-0.9,0.7-1.9,0.7-3V34c-0.5,1.1-1.3,2-2.4,2.7c-1.1,0.7-2.4,1.1-3.9,1.1c-1.4,0-2.7-0.3-3.9-1
		c-1.1-0.7-2-1.6-2.7-2.9c-0.6-1.2-1-2.7-1-4.3s0.3-3,1-4.3c0.6-1.2,1.5-2.2,2.7-2.8c1.1-0.7,2.4-1,3.9-1
		C206.7,21.4,208,21.8,209.1,22.5z M210.7,26.2c-0.5-1-1.2-1.7-2.1-2.2s-1.9-0.8-3-0.8c-1.1,0-2.1,0.3-3,0.8
		c-0.9,0.5-1.6,1.2-2.1,2.2c-0.5,1-0.8,2.1-0.8,3.4c0,1.3,0.3,2.4,0.8,3.4c0.5,1,1.2,1.7,2.1,2.2c0.9,0.5,1.9,0.8,3,0.8
		c1.1,0,2.1-0.3,3-0.8s1.6-1.3,2.1-2.2c0.5-1,0.8-2.1,0.8-3.4S211.2,27.2,210.7,26.2z"/>
</g>
<g id="Layer_1-2">
	<path class="st0" d="M48.5,44.4c0,0-0.1,0-0.1,0c-0.5-0.1-0.8-0.5-0.7-0.9l2.8-21.7c0.1-0.5,0.5-0.8,0.9-0.7
		c0.5,0.1,0.8,0.5,0.7,0.9l-2.8,21.7C49.3,44.1,48.9,44.4,48.5,44.4L48.5,44.4z"/>
	<path class="st0" d="M33.3,17.7c-1.3,0-2.6-0.5-3.5-1.5c-1-1-1.5-2.2-1.5-3.5s0.5-2.6,1.5-3.5c0.3-0.3,0.9-0.3,1.2,0s0.3,0.9,0,1.2
		c-0.6,0.6-1,1.5-1,2.4c0,0.9,0.4,1.7,1,2.4c1.3,1.3,3.5,1.3,4.7,0c0.3-0.3,0.9-0.3,1.2,0c0.3,0.3,0.3,0.9,0,1.2
		C35.9,17.2,34.7,17.7,33.3,17.7L33.3,17.7z"/>
	<path class="st4" d="M42.5,42.7c-0.5,0-0.8-0.4-0.8-0.8V20.2c0-0.5,0.4-0.8,0.8-0.8s0.8,0.4,0.8,0.8v21.7
		C43.3,42.4,42.9,42.7,42.5,42.7z"/>
	<path class="st4" d="M4.1,42.7c-0.5,0-0.8-0.4-0.8-0.8V20.2c0-2.3,1.9-4.2,4.2-4.2h20c0.5,0,0.8,0.4,0.8,0.8s-0.4,0.8-0.8,0.8h-20
		c-1.4,0-2.5,1.1-2.5,2.5v21.7C4.9,42.4,4.6,42.7,4.1,42.7z"/>
	<path class="st0" d="M49.6,18.2c-0.3,0-0.5-0.1-0.7-0.3L41.8,9c-0.3-0.4-0.2-0.9,0.1-1.2s0.9-0.2,1.2,0.1l7.2,8.8
		c0.3,0.4,0.2,0.9-0.1,1.2C50,18.1,49.8,18.2,49.6,18.2L49.6,18.2z"/>
	<path class="st1" d="M51.7,22.7c-1.8,0-3.3-1.5-3.3-3.3s1.5-3.3,3.3-3.3c1.8,0,3.3,1.5,3.3,3.3S53.5,22.7,51.7,22.7z M51.7,17.7
		c-0.9,0-1.7,0.8-1.7,1.7c0,0.9,0.8,1.7,1.7,1.7c0.9,0,1.7-0.8,1.7-1.7C53.3,18.5,52.6,17.7,51.7,17.7z"/>
	<path class="st1" d="M54.2,47.8H42.5c-0.5,0-0.8-0.4-0.8-0.8c0-2.3,1.9-4.2,4.2-4.2h5c2.3,0,4.2,1.9,4.2,4.2
		C55,47.4,54.6,47.8,54.2,47.8z M43.5,46.1h9.7c-0.4-1-1.3-1.7-2.4-1.7h-5C44.8,44.4,43.8,45.1,43.5,46.1L43.5,46.1z"/>
	<path class="st1" d="M40.8,11c-0.2,0-0.4-0.1-0.6-0.3l-5-5c-0.3-0.3-0.3-0.9,0-1.2c0.3-0.3,0.9-0.3,1.2,0l5,5
		c0.3,0.3,0.3,0.9,0,1.2C41.2,10.9,41,11,40.8,11L40.8,11z"/>
	<path class="st1" d="M23.3,31.1c-2.8,0-5-2.3-5-5s2.3-5,5-5s5,2.3,5,5S26,31.1,23.3,31.1z M23.3,22.7c-1.8,0-3.3,1.5-3.3,3.3
		s1.5,3.3,3.3,3.3s3.3-1.5,3.3-3.3S25.1,22.7,23.3,22.7z"/>
	<path class="st1" d="M32.5,42.7c-0.3,0-0.7-0.2-0.8-0.5L29.6,37c-0.6-1.6-2.2-2.6-3.9-2.6h-4.9c-1.7,0-3.2,1-3.9,2.6l-2.1,5.2
		c-0.2,0.4-0.7,0.6-1.1,0.5c-0.4-0.2-0.6-0.7-0.5-1.1l2.1-5.2c0.9-2.2,3-3.7,5.4-3.7h4.9c2.4,0,4.5,1.4,5.4,3.7l2.1,5.2
		c0.2,0.4,0,0.9-0.5,1.1C32.7,42.7,32.6,42.8,32.5,42.7L32.5,42.7z"/>
	<path class="st0" d="M39.1,47.8H5.8c-2.3,0-4.2-1.9-4.2-4.2c0-1.4,1.1-2.5,2.5-2.5h38.4c0.5,0,0.8,0.4,0.8,0.8s-0.4,0.8-0.8,0.8
		H4.1c-0.5,0-0.8,0.4-0.8,0.8c0,1.4,1.1,2.5,2.5,2.5h33.4c0.5,0,0.8,0.4,0.8,0.8S39.6,47.8,39.1,47.8z"/>
	<path class="st1" d="M39.1,19.4c-0.2,0-0.4-0.1-0.6-0.3L26.9,7.4c-0.3-0.3-0.3-0.9,0-1.2c2.3-2.3,5.6-3.1,8.7-2.1h0l1.9-1.9
		C38.3,1.5,39.4,1,40.6,1C43,1,45,3,45,5.4c0,1.2-0.5,2.3-1.3,3.1l-1.9,1.9v0c1,3.1,0.3,6.4-2,8.7C39.5,19.3,39.3,19.3,39.1,19.4
		L39.1,19.4z M28.7,6.9l10.4,10.4c1.4-1.8,1.8-4.1,1.1-6.3L40,10.4c-0.1-0.3,0-0.6,0.2-0.9l2.3-2.3c0.5-0.5,0.8-1.2,0.8-1.9
		c0-1.5-1.2-2.7-2.7-2.7c-0.7,0-1.4,0.3-1.9,0.8l-2.3,2.3C36.2,6,35.8,6.1,35.5,6L35,5.8C32.8,5,30.4,5.5,28.7,6.9L28.7,6.9z"/>
</g>
</svg>
