<?xml version="1.0" encoding="utf-8"?>
<!-- Generator: Adobe Illustrator 27.0.1, SVG Export Plug-In . SVG Version: 6.00 Build 0)  -->
<svg version="1.0" id="Layer_1" xmlns="http://www.w3.org/2000/svg" xmlns:xlink="http://www.w3.org/1999/xlink" x="0px" y="0px"
	 viewBox="0 0 246 55" style="enable-background:new 0 0 246 55;" xml:space="preserve">
<style type="text/css">
	.st0{fill:#64B0AE;}
	.st1{fill:#465A65;}
	.st2{fill:#DADDE2;}
</style>
<g id="Layer_1-2">
	<path class="st0" d="M40.1,25.7c-6.8,0-12.4-5.5-12.4-12.4S33.3,1,40.1,1s12.4,5.5,12.4,12.4S46.9,25.7,40.1,25.7z M40.1,2.6
		c-5.9,0-10.7,4.8-10.7,10.7S34.2,24,40.1,24s10.7-4.8,10.7-10.7S46,2.6,40.1,2.6z"/>
	<path class="st1" d="M40.9,19.1h-4.1c-0.5,0-0.8-0.4-0.8-0.8c0-0.5,0.4-0.8,0.8-0.8h4.1c0.9,0,1.6-0.7,1.6-1.6s-0.7-1.6-1.6-1.6
		h-1.6c-1.8,0-3.3-1.5-3.3-3.3s1.5-3.3,3.3-3.3h4.1c0.5,0,0.8,0.4,0.8,0.8s-0.4,0.8-0.8,0.8h-4.1c-0.9,0-1.6,0.7-1.6,1.6
		c0,0.9,0.7,1.6,1.6,1.6h1.6c1.8,0,3.3,1.5,3.3,3.3C44.2,17.7,42.8,19.1,40.9,19.1z"/>
	<path class="st1" d="M40.1,20.8c-0.5,0-0.8-0.4-0.8-0.8v-1.6c0-0.5,0.4-0.8,0.8-0.8c0.5,0,0.8,0.4,0.8,0.8V20
		C40.9,20.4,40.6,20.8,40.1,20.8z"/>
	<path class="st1" d="M40.1,9.2c-0.5,0-0.8-0.4-0.8-0.8V6.8c0-0.5,0.4-0.8,0.8-0.8c0.5,0,0.8,0.4,0.8,0.8v1.6
		C40.9,8.9,40.6,9.2,40.1,9.2z"/>
	<circle class="st1" cx="4.6" cy="43.9" r="1.6"/>
	<path class="st2" d="M17,48.8c-0.2,0-0.4-0.1-0.6-0.2c-0.3-0.3-0.3-0.8,0-1.2l1-1c1.6-1.6,3.8-2.5,6.1-2.5h11
		c2.3,0,4.6-0.9,6.3-2.4L52,31.6c-1.6-1.2-3.8-1.2-5.6-0.1l-7,4.4c-1.6,1-3.4,1.5-5.3,1.5h-8.8c-1.4,0-2.6-1.2-2.6-2.6
		c0-1.3,0.9-2.4,2.2-2.6l3.5-0.6c2.1-0.4,3.8-2,4.1-4.1h-6c-4.8,0-9.3,2.2-12.3,5.9c-1.1,1.4-2.4,2.6-3.9,3.6l-2.8,1.9
		c-0.4,0.2-0.9,0.1-1.1-0.2c-0.2-0.4-0.1-0.9,0.2-1.1l2.8-1.9c1.4-0.9,2.6-2,3.6-3.3c3.3-4.2,8.3-6.5,13.6-6.5h6.9
		c0.5,0,0.8,0.4,0.8,0.8c0,3.3-2.3,6-5.6,6.6l-3.5,0.6c-0.5,0.1-0.8,0.5-0.8,1s0.4,1,1,1h8.8c1.6,0,3.1-0.4,4.4-1.3l7-4.4
		c2.7-1.7,6.1-1.3,8.3,0.9c0.2,0.2,0.2,0.4,0.2,0.6s-0.1,0.4-0.3,0.6L41.9,42.7c-2,1.8-4.7,2.8-7.4,2.8h-11c-1.8,0-3.6,0.7-4.9,2
		l-1,1C17.4,48.8,17.2,48.8,17,48.8z"/>
	<path class="st1" d="M15.4,53.8c-0.2,0-0.4-0.1-0.6-0.2c-0.3-0.3-0.3-0.8,0-1.2l2.1-2.1c0.3-0.3,0.3-0.8,0-1.2L6,38.2
		c-0.3-0.3-0.8-0.3-1.2,0l-2.1,2.1c-0.3,0.3-0.8,0.3-1.2,0s-0.3-0.8,0-1.2L3.7,37c1-1,2.5-1,3.5,0l10.9,10.9c1,1,1,2.5,0,3.5
		L16,53.5C15.8,53.7,15.6,53.8,15.4,53.8L15.4,53.8z"/>
</g>
<g>
	<path class="st1" d="M119.9,26.4v1.7h-5.6v18.6h-2V28.1h-5.7v-1.7H119.9z"/>
	<path class="st1" d="M125.9,31.4c0.9-0.5,2-0.8,3.4-0.8v2.1h-0.6c-1.5,0-2.6,0.4-3.5,1.2s-1.3,2.1-1.3,4v8.8h-2V30.8h2v2.8
		C124.3,32.7,125,31.9,125.9,31.4z"/>
	<path class="st1" d="M131.1,34.4c0.6-1.2,1.5-2.2,2.7-2.8c1.1-0.7,2.4-1,3.9-1s2.8,0.3,3.9,1c1.1,0.7,1.9,1.6,2.4,2.7v-3.5h2v15.8
		h-2v-3.5c-0.5,1.1-1.3,2-2.4,2.7c-1.1,0.7-2.4,1.1-3.9,1.1c-1.4,0-2.7-0.3-3.9-1c-1.1-0.7-2-1.6-2.7-2.9c-0.6-1.2-1-2.7-1-4.3
		S130.5,35.7,131.1,34.4z M143.2,35.4c-0.5-1-1.2-1.7-2.1-2.2s-1.9-0.8-3-0.8s-2.1,0.3-3,0.8s-1.6,1.2-2.1,2.2s-0.8,2.1-0.8,3.4
		c0,1.3,0.3,2.4,0.8,3.4s1.2,1.7,2.1,2.2c0.9,0.5,1.9,0.8,3,0.8s2.1-0.3,3-0.8s1.6-1.3,2.1-2.2c0.5-1,0.8-2.1,0.8-3.4
		S143.7,36.3,143.2,35.4z"/>
	<path class="st1" d="M149.5,34.4c0.7-1.2,1.6-2.2,2.7-2.8c1.2-0.7,2.5-1,4-1c2,0,3.6,0.5,4.8,1.4c1.3,1,2.1,2.3,2.4,3.9h-2.2
		c-0.3-1.1-0.9-2-1.8-2.7c-0.9-0.6-2-1-3.3-1c-1.1,0-2,0.2-2.9,0.7s-1.5,1.2-2,2.2s-0.7,2.1-0.7,3.5s0.2,2.6,0.7,3.5
		c0.5,1,1.2,1.7,2,2.2c0.9,0.5,1.8,0.7,2.9,0.7c1.3,0,2.4-0.3,3.3-1c0.9-0.6,1.5-1.6,1.8-2.7h2.2c-0.4,1.6-1.2,2.9-2.5,3.9
		s-2.9,1.5-4.8,1.5c-1.5,0-2.8-0.3-4-1s-2.1-1.6-2.7-2.8c-0.7-1.2-1-2.7-1-4.3S148.8,35.7,149.5,34.4z"/>
	<path class="st1" d="M174.5,46.7l-6.5-7.1v7.1h-2V25.2h2v12.7l6.4-7.1h2.8l-7.5,7.9l7.6,7.9L174.5,46.7L174.5,46.7z"/>
	<path class="st1" d="M178.6,27.4c-0.3-0.3-0.4-0.6-0.4-1.1c0-0.4,0.1-0.8,0.4-1.1c0.3-0.3,0.6-0.4,1-0.4s0.8,0.1,1,0.4
		c0.3,0.3,0.4,0.6,0.4,1.1c0,0.4-0.1,0.8-0.4,1.1c-0.3,0.3-0.6,0.4-1,0.4S178.9,27.7,178.6,27.4z M180.6,30.8v15.8h-2V30.8H180.6z"
		/>
	<path class="st1" d="M196,32.3c1.2,1.2,1.8,2.9,1.8,5.1v9.3h-2v-9c0-1.7-0.4-3-1.3-3.9c-0.9-0.9-2-1.4-3.5-1.4s-2.7,0.5-3.7,1.4
		c-0.9,1-1.4,2.4-1.4,4.3v8.6h-2V30.8h2v2.7c0.5-1,1.2-1.7,2.2-2.2c0.9-0.5,2-0.8,3.2-0.8C193.3,30.5,194.8,31.1,196,32.3z"/>
	<path class="st1" d="M211.6,31.6c1.1,0.7,1.9,1.6,2.4,2.6v-3.4h2V47c0,1.4-0.3,2.7-0.9,3.9c-0.6,1.1-1.5,2-2.6,2.6
		s-2.4,0.9-3.8,0.9c-2,0-3.7-0.5-5.1-1.4c-1.3-1-2.2-2.3-2.5-3.9h2c0.3,1.1,1,2,2,2.6c1,0.7,2.2,1,3.6,1c1,0,1.9-0.2,2.8-0.7
		c0.8-0.4,1.4-1.1,1.9-1.9c0.5-0.9,0.7-1.9,0.7-3v-3.9c-0.5,1.1-1.3,2-2.4,2.7c-1.1,0.7-2.4,1.1-3.9,1.1c-1.4,0-2.7-0.3-3.9-1
		c-1.1-0.7-2-1.6-2.7-2.9c-0.6-1.2-1-2.7-1-4.3s0.3-3,1-4.3c0.6-1.2,1.5-2.2,2.7-2.8c1.1-0.7,2.4-1,3.9-1
		C209.2,30.6,210.5,30.9,211.6,31.6z M213.2,35.4c-0.5-1-1.2-1.7-2.1-2.2s-1.9-0.8-3-0.8s-2.1,0.3-3,0.8s-1.6,1.2-2.1,2.2
		s-0.8,2.1-0.8,3.4c0,1.3,0.3,2.4,0.8,3.4s1.2,1.7,2.1,2.2c0.9,0.5,1.9,0.8,3,0.8s2.1-0.3,3-0.8s1.6-1.3,2.1-2.2
		c0.5-1,0.8-2.1,0.8-3.4S213.7,36.3,213.2,35.4z"/>
</g>
<g>
	<path class="st0" d="M66.9,3.8v7.6h7.7V13h-7.7v7.7h8.6v1.7H64.9V2.1h10.6v1.7H66.9z"/>
	<path class="st0" d="M86.5,22.4L82.4,16l-3.9,6.4h-2.1l5.1-7.9l-5-7.9h2.3l4,6.3l3.9-6.3h2.1l-5,7.8l5.1,8H86.5z"/>
	<path class="st0" d="M94.7,7.4c1.1-0.7,2.4-1.1,3.9-1.1c1.4,0,2.7,0.3,3.9,1c1.1,0.7,2,1.6,2.7,2.8c0.6,1.2,1,2.7,1,4.3
		s-0.3,3.1-1,4.3c-0.6,1.2-1.5,2.2-2.7,2.9c-1.1,0.7-2.4,1-3.9,1s-2.8-0.4-3.9-1.1s-1.9-1.6-2.4-2.7v11h-2V6.6h2V10
		C92.8,9,93.6,8.1,94.7,7.4z M103.3,11c-0.5-1-1.2-1.7-2.1-2.2S99.3,8,98.2,8s-2.1,0.3-3,0.8s-1.6,1.3-2.1,2.2
		c-0.5,1-0.8,2.1-0.8,3.4s0.3,2.4,0.8,3.4s1.2,1.7,2.1,2.2s1.9,0.8,3,0.8s2.1-0.3,3-0.8s1.6-1.3,2.1-2.2c0.5-1,0.8-2.1,0.8-3.4
		C104.1,13.1,103.8,12,103.3,11z"/>
	<path class="st0" d="M122.9,15.2h-13.1c0.1,1.2,0.3,2.2,0.9,3.1c0.5,0.9,1.2,1.5,2.1,1.9s1.8,0.7,2.8,0.7c1.3,0,2.4-0.3,3.3-1
		c0.9-0.6,1.5-1.5,1.8-2.6h2.1c-0.4,1.5-1.2,2.8-2.5,3.8s-2.9,1.5-4.8,1.5c-1.5,0-2.8-0.3-4-1s-2.1-1.6-2.8-2.8
		c-0.7-1.2-1-2.7-1-4.3s0.3-3.1,1-4.3s1.6-2.2,2.8-2.8c1.2-0.7,2.5-1,4-1s2.8,0.3,4,1s2,1.5,2.6,2.7c0.6,1.1,0.9,2.3,0.9,3.7
		C122.9,14.3,122.9,14.9,122.9,15.2z M120.2,10.6c-0.5-0.8-1.2-1.5-2-1.9c-0.9-0.4-1.8-0.6-2.8-0.6c-1.5,0-2.8,0.5-3.9,1.4
		c-1.1,1-1.7,2.3-1.8,4.1h11.1C120.9,12.4,120.7,11.4,120.2,10.6z"/>
	<path class="st0" d="M137.5,8c1.2,1.2,1.8,2.9,1.8,5.1v9.3h-2v-9c0-1.7-0.4-3-1.3-3.9c-0.9-0.9-2-1.4-3.5-1.4s-2.7,0.5-3.7,1.4
		c-0.9,1-1.4,2.4-1.4,4.3v8.6h-2V6.6h2v2.7c0.5-1,1.2-1.7,2.2-2.2c0.9-0.5,2-0.8,3.2-0.8C134.7,6.3,136.3,6.8,137.5,8z"/>
	<path class="st0" d="M143.5,21.3c-1.1-0.8-1.8-2-1.9-3.4h2.1c0.1,0.9,0.5,1.6,1.3,2.2c0.7,0.6,1.7,0.8,3,0.8c1.1,0,2-0.3,2.6-0.8
		s0.9-1.2,0.9-1.9c0-0.5-0.2-1-0.5-1.3s-0.8-0.6-1.3-0.8c-0.5-0.2-1.3-0.4-2.2-0.7c-1.2-0.3-2.1-0.6-2.9-0.9s-1.4-0.8-1.9-1.4
		c-0.5-0.6-0.8-1.4-0.8-2.4c0-0.8,0.2-1.5,0.7-2.1c0.5-0.7,1.1-1.2,2-1.6s1.8-0.6,2.9-0.6c1.7,0,3.1,0.4,4.1,1.3s1.6,2,1.7,3.6h-2
		c-0.1-0.9-0.4-1.7-1.1-2.2c-0.7-0.6-1.6-0.9-2.7-0.9c-1,0-1.9,0.2-2.5,0.7s-1,1.1-1,1.8c0,0.6,0.2,1.1,0.6,1.5
		c0.4,0.4,0.8,0.7,1.4,0.9c0.6,0.2,1.3,0.5,2.3,0.7c1.1,0.3,2,0.6,2.7,0.9s1.3,0.7,1.7,1.3c0.5,0.6,0.7,1.3,0.8,2.2
		c0,0.9-0.2,1.6-0.7,2.3c-0.5,0.7-1.1,1.2-1.9,1.6c-0.8,0.4-1.8,0.6-2.9,0.6C146.1,22.6,144.6,22.2,143.5,21.3z"/>
	<path class="st0" d="M170.3,15.2h-13.1c0.1,1.2,0.3,2.2,0.9,3.1c0.5,0.9,1.2,1.5,2.1,1.9c0.9,0.4,1.8,0.7,2.8,0.7
		c1.3,0,2.4-0.3,3.3-1c0.9-0.6,1.5-1.5,1.8-2.6h2.1c-0.4,1.5-1.2,2.8-2.5,3.8s-2.9,1.5-4.8,1.5c-1.5,0-2.8-0.3-4-1s-2.1-1.6-2.8-2.8
		c-0.7-1.2-1-2.7-1-4.3s0.3-3.1,1-4.3s1.6-2.2,2.8-2.8c1.2-0.7,2.5-1,4-1s2.8,0.3,4,1s2,1.5,2.6,2.7c0.6,1.1,0.9,2.3,0.9,3.7
		C170.4,14.3,170.3,14.9,170.3,15.2z M167.6,10.6c-0.5-0.8-1.2-1.5-2-1.9c-0.9-0.4-1.8-0.6-2.8-0.6c-1.5,0-2.8,0.5-3.9,1.4
		c-1.1,1-1.7,2.3-1.8,4.1h11.1C168.3,12.4,168.1,11.4,167.6,10.6z"/>
</g>
</svg>
