<?xml version="1.0" encoding="utf-8"?>
<!-- Generator: Adobe Illustrator 27.0.1, SVG Export Plug-In . SVG Version: 6.00 Build 0)  -->
<svg version="1.0" id="Layer_1" xmlns="http://www.w3.org/2000/svg" xmlns:xlink="http://www.w3.org/1999/xlink" x="0px" y="0px"
	 viewBox="0 0 246 55" style="enable-background:new 0 0 246 55;" xml:space="preserve">
<style type="text/css">
	.st0{display:none;}
	.st1{display:inline;fill:#64B0AE;}
	.st2{display:inline;fill:#465A65;}
	.st3{fill:#64B0AE;}
	.st4{fill:#DADDE2;}
	.st5{fill:#465A65;}
</style>
<g class="st0">
	<path class="st1" d="M77.9,26.4v1.7h-5.6v18.6h-2V28.1h-5.7v-1.7H77.9z"/>
	<path class="st1" d="M83.9,31.4c0.9-0.5,2-0.8,3.4-0.8v2.1h-0.6c-1.5,0-2.6,0.4-3.5,1.2c-0.9,0.8-1.3,2.1-1.3,4v8.8h-2V30.8h2v2.8
		C82.3,32.7,83,31.9,83.9,31.4z"/>
	<path class="st1" d="M89.1,34.4c0.6-1.2,1.5-2.2,2.7-2.8c1.1-0.7,2.4-1,3.9-1c1.5,0,2.8,0.3,3.9,1c1.1,0.7,1.9,1.6,2.4,2.7v-3.5h2
		v15.8h-2v-3.5c-0.5,1.1-1.3,2-2.4,2.7c-1.1,0.7-2.4,1.1-3.9,1.1c-1.4,0-2.7-0.3-3.9-1c-1.1-0.7-2-1.6-2.7-2.9c-0.6-1.2-1-2.7-1-4.3
		S88.5,35.7,89.1,34.4z M101.2,35.4c-0.5-1-1.2-1.7-2.1-2.2s-1.9-0.8-3-0.8c-1.1,0-2.1,0.3-3,0.8c-0.9,0.5-1.6,1.2-2.1,2.2
		c-0.5,1-0.8,2.1-0.8,3.4c0,1.3,0.3,2.4,0.8,3.4c0.5,1,1.2,1.7,2.1,2.2c0.9,0.5,1.9,0.8,3,0.8c1.1,0,2.1-0.3,3-0.8s1.6-1.3,2.1-2.2
		c0.5-1,0.8-2.1,0.8-3.4S101.7,36.3,101.2,35.4z"/>
	<path class="st1" d="M107.5,34.4c0.7-1.2,1.6-2.2,2.7-2.8c1.2-0.7,2.5-1,4-1c2,0,3.6,0.5,4.8,1.4c1.3,1,2.1,2.3,2.4,3.9h-2.2
		c-0.3-1.1-0.9-2-1.8-2.7c-0.9-0.6-2-1-3.3-1c-1.1,0-2,0.2-2.9,0.7c-0.9,0.5-1.5,1.2-2,2.2s-0.7,2.1-0.7,3.5c0,1.4,0.2,2.6,0.7,3.5
		c0.5,1,1.2,1.7,2,2.2c0.9,0.5,1.8,0.7,2.9,0.7c1.3,0,2.4-0.3,3.3-1c0.9-0.6,1.5-1.6,1.8-2.7h2.2c-0.4,1.6-1.2,2.9-2.5,3.9
		c-1.3,1-2.9,1.5-4.8,1.5c-1.5,0-2.8-0.3-4-1c-1.2-0.7-2.1-1.6-2.7-2.8c-0.7-1.2-1-2.7-1-4.3S106.8,35.7,107.5,34.4z"/>
	<path class="st1" d="M132.5,46.7l-6.5-7.1v7.1h-2V25.2h2v12.7l6.4-7.1h2.8l-7.5,7.9l7.6,7.9H132.5z"/>
	<path class="st1" d="M136.6,27.4c-0.3-0.3-0.4-0.6-0.4-1.1c0-0.4,0.1-0.8,0.4-1.1c0.3-0.3,0.6-0.4,1-0.4s0.8,0.1,1,0.4
		c0.3,0.3,0.4,0.6,0.4,1.1c0,0.4-0.1,0.8-0.4,1.1c-0.3,0.3-0.6,0.4-1,0.4S136.9,27.7,136.6,27.4z M138.6,30.8v15.8h-2V30.8H138.6z"
		/>
	<path class="st1" d="M154,32.3c1.2,1.2,1.8,2.9,1.8,5.1v9.3h-2v-9c0-1.7-0.4-3-1.3-3.9c-0.9-0.9-2-1.4-3.5-1.4
		c-1.5,0-2.7,0.5-3.7,1.4c-0.9,1-1.4,2.4-1.4,4.3v8.6h-2V30.8h2v2.7c0.5-1,1.2-1.7,2.2-2.2c0.9-0.5,2-0.8,3.2-0.8
		C151.3,30.5,152.8,31.1,154,32.3z"/>
	<path class="st1" d="M169.6,31.6c1.1,0.7,1.9,1.6,2.4,2.6v-3.4h2v16.2c0,1.4-0.3,2.7-0.9,3.9c-0.6,1.1-1.5,2-2.6,2.6
		s-2.4,0.9-3.8,0.9c-2,0-3.7-0.5-5.1-1.4c-1.3-1-2.2-2.3-2.5-3.9h2c0.3,1.1,1,2,2,2.6c1,0.7,2.2,1,3.6,1c1,0,1.9-0.2,2.8-0.7
		c0.8-0.4,1.4-1.1,1.9-1.9c0.5-0.9,0.7-1.9,0.7-3v-3.9c-0.5,1.1-1.3,2-2.4,2.7c-1.1,0.7-2.4,1.1-3.9,1.1c-1.4,0-2.7-0.3-3.9-1
		c-1.1-0.7-2-1.6-2.7-2.9c-0.6-1.2-1-2.7-1-4.3s0.3-3,1-4.3c0.6-1.2,1.5-2.2,2.7-2.8c1.1-0.7,2.4-1,3.9-1
		C167.2,30.6,168.5,30.9,169.6,31.6z M171.2,35.4c-0.5-1-1.2-1.7-2.1-2.2s-1.9-0.8-3-0.8c-1.1,0-2.1,0.3-3,0.8
		c-0.9,0.5-1.6,1.2-2.1,2.2c-0.5,1-0.8,2.1-0.8,3.4c0,1.3,0.3,2.4,0.8,3.4c0.5,1,1.2,1.7,2.1,2.2c0.9,0.5,1.9,0.8,3,0.8
		c1.1,0,2.1-0.3,3-0.8s1.6-1.3,2.1-2.2c0.5-1,0.8-2.1,0.8-3.4S171.7,36.3,171.2,35.4z"/>
</g>
<g class="st0">
	<path class="st2" d="M66.9,3.8v7.6h7.7V13h-7.7v7.7h8.6v1.7H64.9V2.1h10.6v1.7H66.9z"/>
	<path class="st2" d="M86.5,22.4L82.4,16l-3.9,6.4h-2.1l5.1-7.9l-5-7.9h2.3l4,6.3l3.9-6.3h2.1l-5,7.8l5.1,8H86.5z"/>
	<path class="st2" d="M94.7,7.4c1.1-0.7,2.4-1.1,3.9-1.1c1.4,0,2.7,0.3,3.9,1c1.1,0.7,2,1.6,2.7,2.8c0.6,1.2,1,2.7,1,4.3
		s-0.3,3.1-1,4.3c-0.6,1.2-1.5,2.2-2.7,2.9c-1.1,0.7-2.4,1-3.9,1c-1.5,0-2.8-0.4-3.9-1.1c-1.1-0.7-1.9-1.6-2.4-2.7v11h-2V6.6h2V10
		C92.8,9,93.6,8.1,94.7,7.4z M103.3,11c-0.5-1-1.2-1.7-2.1-2.2s-1.9-0.8-3-0.8c-1.1,0-2.1,0.3-3,0.8s-1.6,1.3-2.1,2.2
		c-0.5,1-0.8,2.1-0.8,3.4c0,1.3,0.3,2.4,0.8,3.4c0.5,1,1.2,1.7,2.1,2.2c0.9,0.5,1.9,0.8,3,0.8c1.1,0,2.1-0.3,3-0.8s1.6-1.3,2.1-2.2
		c0.5-1,0.8-2.1,0.8-3.4C104.1,13.1,103.8,12,103.3,11z"/>
	<path class="st2" d="M122.9,15.2h-13.1c0.1,1.2,0.3,2.2,0.9,3.1c0.5,0.9,1.2,1.5,2.1,1.9c0.9,0.4,1.8,0.7,2.8,0.7
		c1.3,0,2.4-0.3,3.3-1c0.9-0.6,1.5-1.5,1.8-2.6h2.1c-0.4,1.5-1.2,2.8-2.5,3.8c-1.3,1-2.9,1.5-4.8,1.5c-1.5,0-2.8-0.3-4-1
		s-2.1-1.6-2.8-2.8c-0.7-1.2-1-2.7-1-4.3s0.3-3.1,1-4.3c0.7-1.2,1.6-2.2,2.8-2.8c1.2-0.7,2.5-1,4-1c1.5,0,2.8,0.3,4,1s2,1.5,2.6,2.7
		c0.6,1.1,0.9,2.3,0.9,3.7C122.9,14.3,122.9,14.9,122.9,15.2z M120.2,10.6c-0.5-0.8-1.2-1.5-2-1.9c-0.9-0.4-1.8-0.6-2.8-0.6
		c-1.5,0-2.8,0.5-3.9,1.4c-1.1,1-1.7,2.3-1.8,4.1h11.1C120.9,12.4,120.7,11.4,120.2,10.6z"/>
	<path class="st2" d="M137.5,8c1.2,1.2,1.8,2.9,1.8,5.1v9.3h-2v-9c0-1.7-0.4-3-1.3-3.9c-0.9-0.9-2-1.4-3.5-1.4
		c-1.5,0-2.7,0.5-3.7,1.4c-0.9,1-1.4,2.4-1.4,4.3v8.6h-2V6.6h2v2.7c0.5-1,1.2-1.7,2.2-2.2c0.9-0.5,2-0.8,3.2-0.8
		C134.7,6.3,136.3,6.8,137.5,8z"/>
	<path class="st2" d="M143.5,21.3c-1.1-0.8-1.8-2-1.9-3.4h2.1c0.1,0.9,0.5,1.6,1.3,2.2c0.7,0.6,1.7,0.8,3,0.8c1.1,0,2-0.3,2.6-0.8
		c0.6-0.5,0.9-1.2,0.9-1.9c0-0.5-0.2-1-0.5-1.3s-0.8-0.6-1.3-0.8c-0.5-0.2-1.3-0.4-2.2-0.7c-1.2-0.3-2.1-0.6-2.9-0.9
		s-1.4-0.8-1.9-1.4c-0.5-0.6-0.8-1.4-0.8-2.4c0-0.8,0.2-1.5,0.7-2.1c0.5-0.7,1.1-1.2,2-1.6s1.8-0.6,2.9-0.6c1.7,0,3.1,0.4,4.1,1.3
		c1,0.9,1.6,2,1.7,3.6h-2c-0.1-0.9-0.4-1.7-1.1-2.2c-0.7-0.6-1.6-0.9-2.7-0.9c-1,0-1.9,0.2-2.5,0.7c-0.6,0.5-1,1.1-1,1.8
		c0,0.6,0.2,1.1,0.6,1.5c0.4,0.4,0.8,0.7,1.4,0.9c0.6,0.2,1.3,0.5,2.3,0.7c1.1,0.3,2,0.6,2.7,0.9s1.3,0.7,1.7,1.3
		c0.5,0.6,0.7,1.3,0.8,2.2c0,0.9-0.2,1.6-0.7,2.3c-0.5,0.7-1.1,1.2-1.9,1.6c-0.8,0.4-1.8,0.6-2.9,0.6
		C146.1,22.6,144.6,22.2,143.5,21.3z"/>
	<path class="st2" d="M170.3,15.2h-13.1c0.1,1.2,0.3,2.2,0.9,3.1c0.5,0.9,1.2,1.5,2.1,1.9c0.9,0.4,1.8,0.7,2.8,0.7
		c1.3,0,2.4-0.3,3.3-1c0.9-0.6,1.5-1.5,1.8-2.6h2.1c-0.4,1.5-1.2,2.8-2.5,3.8c-1.3,1-2.9,1.5-4.8,1.5c-1.5,0-2.8-0.3-4-1
		s-2.1-1.6-2.8-2.8c-0.7-1.2-1-2.7-1-4.3s0.3-3.1,1-4.3c0.7-1.2,1.6-2.2,2.8-2.8c1.2-0.7,2.5-1,4-1c1.5,0,2.8,0.3,4,1s2,1.5,2.6,2.7
		c0.6,1.1,0.9,2.3,0.9,3.7C170.4,14.3,170.3,14.9,170.3,15.2z M167.6,10.6c-0.5-0.8-1.2-1.5-2-1.9c-0.9-0.4-1.8-0.6-2.8-0.6
		c-1.5,0-2.8,0.5-3.9,1.4c-1.1,1-1.7,2.3-1.8,4.1h11.1C168.3,12.4,168.1,11.4,167.6,10.6z"/>
</g>
<g>
	<path class="st3" d="M66.8,17.2v20.3h-2V17.2H66.8z"/>
	<path class="st3" d="M82.2,23.1c1.2,1.2,1.8,2.9,1.8,5.1v9.3h-2v-9c0-1.7-0.4-3-1.3-3.9c-0.9-0.9-2-1.4-3.5-1.4
		c-1.5,0-2.7,0.5-3.7,1.4c-0.9,1-1.4,2.4-1.4,4.3v8.6h-2V21.6h2v2.7c0.5-1,1.2-1.7,2.2-2.2c0.9-0.5,2-0.8,3.2-0.8
		C79.5,21.4,81,21.9,82.2,23.1z"/>
	<path class="st3" d="M92.9,35.5l5.3-13.9h2.1L94,37.5h-2.3l-6.3-15.8h2.2L92.9,35.5z"/>
	<path class="st3" d="M104.8,36.7c-1.2-0.7-2.1-1.6-2.8-2.8c-0.7-1.2-1-2.7-1-4.3s0.3-3.1,1-4.3c0.7-1.2,1.6-2.2,2.8-2.8
		c1.2-0.7,2.5-1,4-1s2.8,0.3,4,1c1.2,0.7,2.2,1.6,2.8,2.8c0.7,1.2,1,2.7,1,4.3c0,1.6-0.3,3.1-1,4.3c-0.7,1.2-1.7,2.2-2.9,2.9
		c-1.2,0.7-2.6,1-4.1,1C107.3,37.7,106,37.4,104.8,36.7z M111.7,35.2c0.9-0.5,1.6-1.2,2.2-2.1c0.6-1,0.8-2.1,0.8-3.5
		c0-1.4-0.3-2.6-0.8-3.5c-0.5-1-1.3-1.7-2.1-2.1c-0.9-0.5-1.9-0.7-2.9-0.7s-2,0.2-2.9,0.7s-1.6,1.2-2.1,2.1c-0.5,1-0.8,2.1-0.8,3.5
		c0,1.4,0.3,2.6,0.8,3.5c0.5,1,1.2,1.7,2.1,2.1c0.9,0.5,1.8,0.7,2.9,0.7C109.8,35.9,110.8,35.7,111.7,35.2z"/>
	<path class="st3" d="M119.2,18.2c-0.3-0.3-0.4-0.6-0.4-1.1c0-0.4,0.1-0.8,0.4-1.1c0.3-0.3,0.6-0.4,1-0.4s0.8,0.1,1,0.4
		c0.3,0.3,0.4,0.6,0.4,1.1c0,0.4-0.1,0.8-0.4,1.1c-0.3,0.3-0.6,0.4-1,0.4S119.5,18.5,119.2,18.2z M121.3,21.6v15.8h-2V21.6H121.3z"
		/>
	<path class="st3" d="M124.7,25.2c0.7-1.2,1.6-2.2,2.7-2.8c1.2-0.7,2.5-1,4-1c2,0,3.6,0.5,4.8,1.4c1.3,1,2.1,2.3,2.4,3.9h-2.2
		c-0.3-1.1-0.9-2-1.8-2.7c-0.9-0.6-2-1-3.3-1c-1.1,0-2,0.2-2.9,0.7c-0.9,0.5-1.5,1.2-2,2.2s-0.7,2.1-0.7,3.5c0,1.4,0.2,2.6,0.7,3.5
		c0.5,1,1.2,1.7,2,2.2c0.9,0.5,1.8,0.7,2.9,0.7c1.3,0,2.4-0.3,3.3-1c0.9-0.6,1.5-1.6,1.8-2.7h2.2c-0.4,1.6-1.2,2.9-2.5,3.9
		c-1.3,1-2.9,1.5-4.8,1.5c-1.5,0-2.8-0.3-4-1c-1.2-0.7-2.1-1.6-2.7-2.8c-0.7-1.2-1-2.7-1-4.3S124,26.5,124.7,25.2z"/>
	<path class="st3" d="M141.1,18.2c-0.3-0.3-0.4-0.6-0.4-1.1c0-0.4,0.1-0.8,0.4-1.1c0.3-0.3,0.6-0.4,1-0.4s0.8,0.1,1,0.4
		c0.3,0.3,0.4,0.6,0.4,1.1c0,0.4-0.1,0.8-0.4,1.1c-0.3,0.3-0.6,0.4-1,0.4S141.4,18.5,141.1,18.2z M143.2,21.6v15.8h-2V21.6H143.2z"
		/>
	<path class="st3" d="M158.6,23.1c1.2,1.2,1.8,2.9,1.8,5.1v9.3h-2v-9c0-1.7-0.4-3-1.3-3.9c-0.9-0.9-2-1.4-3.5-1.4
		c-1.5,0-2.7,0.5-3.7,1.4c-0.9,1-1.4,2.4-1.4,4.3v8.6h-2V21.6h2v2.7c0.5-1,1.2-1.7,2.2-2.2c0.9-0.5,2-0.8,3.2-0.8
		C155.8,21.4,157.4,21.9,158.6,23.1z"/>
	<path class="st3" d="M174.1,22.5c1.1,0.7,1.9,1.6,2.4,2.6v-3.4h2v16.2c0,1.4-0.3,2.7-0.9,3.9c-0.6,1.1-1.5,2-2.6,2.6
		s-2.4,0.9-3.8,0.9c-2,0-3.7-0.5-5.1-1.4c-1.3-1-2.2-2.3-2.5-3.9h2c0.3,1.1,1,2,2,2.6c1,0.7,2.2,1,3.6,1c1,0,1.9-0.2,2.8-0.7
		c0.8-0.4,1.4-1.1,1.9-1.9c0.5-0.9,0.7-1.9,0.7-3V34c-0.5,1.1-1.3,2-2.4,2.7c-1.1,0.7-2.4,1.1-3.9,1.1c-1.4,0-2.7-0.3-3.9-1
		c-1.1-0.7-2-1.6-2.7-2.9c-0.6-1.2-1-2.7-1-4.3s0.3-3,1-4.3c0.6-1.2,1.5-2.2,2.7-2.8c1.1-0.7,2.4-1,3.9-1
		C171.7,21.4,173,21.8,174.1,22.5z M175.7,26.2c-0.5-1-1.2-1.7-2.1-2.2s-1.9-0.8-3-0.8c-1.1,0-2.1,0.3-3,0.8
		c-0.9,0.5-1.6,1.2-2.1,2.2c-0.5,1-0.8,2.1-0.8,3.4c0,1.3,0.3,2.4,0.8,3.4c0.5,1,1.2,1.7,2.1,2.2c0.9,0.5,1.9,0.8,3,0.8
		c1.1,0,2.1-0.3,3-0.8s1.6-1.3,2.1-2.2c0.5-1,0.8-2.1,0.8-3.4S176.3,27.2,175.7,26.2z"/>
</g>
<g id="Layer_1-2_00000011716059468003222130000005010998196076260516_">
	<path class="st4" d="M51.7,48.8c-0.5,0-0.8-0.4-0.8-0.8V5.1c0-1.4-1.1-2.5-2.5-2.5H17c-1.4,0-2.5,1.1-2.5,2.5v37.9
		c0,0.5-0.4,0.8-0.8,0.8s-0.8-0.4-0.8-0.8V5.1C12.9,2.8,14.7,1,17,1h31.3c2.3,0,4.1,1.8,4.1,4.1V48C52.5,48.5,52.1,48.8,51.7,48.8z"
		/>
	<path class="st4" d="M46.7,53.8H8.8C5.6,53.8,3,51.2,3,48v-3.3c0-1.4,1.1-2.5,2.5-2.5h34.6c1.4,0,2.5,1.1,2.5,2.5V48
		c0,2.3,1.8,4.1,4.1,4.1c2.3,0,4.1-1.8,4.1-4.1v-4.9c0-0.5,0.4-0.8,0.8-0.8s0.8,0.4,0.8,0.8V48C52.5,51.2,49.9,53.8,46.7,53.8z
		 M5.5,43.9c-0.5,0-0.8,0.4-0.8,0.8V48c0,2.3,1.8,4.1,4.1,4.1h33.9c-1.1-1.1-1.7-2.5-1.7-4.1v-3.3c0-0.5-0.4-0.8-0.8-0.8H5.5z"/>
	<path class="st3" d="M22.8,19.1h-4.1c-0.5,0-0.8-0.4-0.8-0.8c0-0.5,0.4-0.8,0.8-0.8h4.1c0.9,0,1.6-0.7,1.6-1.6s-0.7-1.6-1.6-1.6
		h-1.6c-1.8,0-3.3-1.5-3.3-3.3s1.5-3.3,3.3-3.3h4.1c0.5,0,0.8,0.4,0.8,0.8s-0.4,0.8-0.8,0.8h-4.1c-0.9,0-1.6,0.7-1.6,1.6
		c0,0.9,0.7,1.6,1.6,1.6h1.6c1.8,0,3.3,1.5,3.3,3.3C26.1,17.7,24.6,19.1,22.8,19.1z"/>
	<path class="st3" d="M22,20.8c-0.5,0-0.8-0.4-0.8-0.8v-1.6c0-0.5,0.4-0.8,0.8-0.8c0.5,0,0.8,0.4,0.8,0.8V20
		C22.8,20.4,22.4,20.8,22,20.8z"/>
	<path class="st3" d="M22,9.2c-0.5,0-0.8-0.4-0.8-0.8V6.8c0-0.5,0.4-0.8,0.8-0.8c0.5,0,0.8,0.4,0.8,0.8v1.6
		C22.8,8.9,22.4,9.2,22,9.2z"/>
	<path class="st5" d="M36.8,9.2h-6.6c-0.5,0-0.8-0.4-0.8-0.8s0.4-0.8,0.8-0.8h6.6c0.5,0,0.8,0.4,0.8,0.8S37.3,9.2,36.8,9.2z"/>
	<path class="st5" d="M46.7,14.2H30.2c-0.5,0-0.8-0.4-0.8-0.8s0.4-0.8,0.8-0.8h16.5c0.5,0,0.8,0.4,0.8,0.8S47.2,14.2,46.7,14.2z"/>
	<path class="st5" d="M46.7,19.1H30.2c-0.5,0-0.8-0.4-0.8-0.8c0-0.5,0.4-0.8,0.8-0.8h16.5c0.5,0,0.8,0.4,0.8,0.8
		C47.5,18.8,47.2,19.1,46.7,19.1z"/>
	<path class="st5" d="M28.6,30.7h-8.2c-1.4,0-2.5-1.1-2.5-2.5v-1.6c0-1.4,1.1-2.5,2.5-2.5h8.2c1.4,0,2.5,1.1,2.5,2.5v1.6
		C31,29.6,29.9,30.7,28.6,30.7z M20.3,25.7c-0.5,0-0.8,0.4-0.8,0.8v1.6c0,0.5,0.4,0.8,0.8,0.8h8.2c0.5,0,0.8-0.4,0.8-0.8v-1.6
		c0-0.5-0.4-0.8-0.8-0.8H20.3z"/>
	<path class="st5" d="M45.1,30.7h-8.2c-1.4,0-2.5-1.1-2.5-2.5v-1.6c0-1.4,1.1-2.5,2.5-2.5h8.2c1.4,0,2.5,1.1,2.5,2.5v1.6
		C47.5,29.6,46.4,30.7,45.1,30.7z M36.8,25.7c-0.5,0-0.8,0.4-0.8,0.8v1.6c0,0.5,0.4,0.8,0.8,0.8h8.2c0.5,0,0.8-0.4,0.8-0.8v-1.6
		c0-0.5-0.4-0.8-0.8-0.8H36.8z"/>
	<path class="st5" d="M28.6,40.6h-8.2c-1.4,0-2.5-1.1-2.5-2.5v-1.6c0-1.4,1.1-2.5,2.5-2.5h8.2c1.4,0,2.5,1.1,2.5,2.5v1.6
		C31,39.5,29.9,40.6,28.6,40.6z M20.3,35.6c-0.5,0-0.8,0.4-0.8,0.8v1.6c0,0.5,0.4,0.8,0.8,0.8h8.2c0.5,0,0.8-0.4,0.8-0.8v-1.6
		c0-0.5-0.4-0.8-0.8-0.8H20.3z"/>
	<path class="st5" d="M45.1,40.6h-8.2c-1.4,0-2.5-1.1-2.5-2.5v-1.6c0-1.4,1.1-2.5,2.5-2.5h8.2c1.4,0,2.5,1.1,2.5,2.5v1.6
		C47.5,39.5,46.4,40.6,45.1,40.6z M36.8,35.6c-0.5,0-0.8,0.4-0.8,0.8v1.6c0,0.5,0.4,0.8,0.8,0.8h8.2c0.5,0,0.8-0.4,0.8-0.8v-1.6
		c0-0.5-0.4-0.8-0.8-0.8H36.8z"/>
</g>
</svg>
