<?xml version="1.0" encoding="utf-8"?>
<!-- Generator: Adobe Illustrator 27.0.1, SVG Export Plug-In . SVG Version: 6.00 Build 0)  -->
<svg version="1.1" id="Layer_1" xmlns="http://www.w3.org/2000/svg" xmlns:xlink="http://www.w3.org/1999/xlink" x="0px" y="0px"
	 viewBox="0 0 246 55" style="enable-background:new 0 0 246 55;" xml:space="preserve">
<style type="text/css">
	.st0{display:none;}
	.st1{display:inline;fill:#64B0AE;}
	.st2{display:inline;fill:#465A65;}
	.st3{fill:#DADDE2;}
	.st4{fill:#64B0AE;}
	.st5{fill:#465A65;}
</style>
<g class="st0">
	<path class="st1" d="M77.9,26.4v1.7h-5.6v18.6h-2V28.1h-5.7v-1.7H77.9z"/>
	<path class="st1" d="M83.9,31.4c0.9-0.5,2-0.8,3.4-0.8v2.1h-0.6c-1.5,0-2.6,0.4-3.5,1.2s-1.3,2.1-1.3,4v8.8h-2V30.8h2v2.8
		C82.3,32.7,83,31.9,83.9,31.4z"/>
	<path class="st1" d="M89.1,34.4c0.6-1.2,1.5-2.2,2.7-2.8c1.1-0.7,2.4-1,3.9-1s2.8,0.3,3.9,1s1.9,1.6,2.4,2.7v-3.5h2v15.8h-2v-3.5
		c-0.5,1.1-1.3,2-2.4,2.7s-2.4,1.1-3.9,1.1c-1.4,0-2.7-0.3-3.9-1c-1.1-0.7-2-1.6-2.7-2.9c-0.6-1.2-1-2.7-1-4.3S88.5,35.7,89.1,34.4z
		 M101.2,35.4c-0.5-1-1.2-1.7-2.1-2.2s-1.9-0.8-3-0.8s-2.1,0.3-3,0.8s-1.6,1.2-2.1,2.2s-0.8,2.1-0.8,3.4c0,1.3,0.3,2.4,0.8,3.4
		s1.2,1.7,2.1,2.2s1.9,0.8,3,0.8s2.1-0.3,3-0.8s1.6-1.3,2.1-2.2c0.5-1,0.8-2.1,0.8-3.4S101.7,36.3,101.2,35.4z"/>
	<path class="st1" d="M107.5,34.4c0.7-1.2,1.6-2.2,2.7-2.8c1.2-0.7,2.5-1,4-1c2,0,3.6,0.5,4.8,1.4c1.3,1,2.1,2.3,2.4,3.9h-2.2
		c-0.3-1.1-0.9-2-1.8-2.7c-0.9-0.6-2-1-3.3-1c-1.1,0-2,0.2-2.9,0.7s-1.5,1.2-2,2.2s-0.7,2.1-0.7,3.5s0.2,2.6,0.7,3.5
		c0.5,1,1.2,1.7,2,2.2c0.9,0.5,1.8,0.7,2.9,0.7c1.3,0,2.4-0.3,3.3-1c0.9-0.6,1.5-1.6,1.8-2.7h2.2c-0.4,1.6-1.2,2.9-2.5,3.9
		s-2.9,1.5-4.8,1.5c-1.5,0-2.8-0.3-4-1s-2.1-1.6-2.7-2.8c-0.7-1.2-1-2.7-1-4.3S106.8,35.7,107.5,34.4z"/>
	<path class="st1" d="M132.5,46.7l-6.5-7.1v7.1h-2V25.2h2v12.7l6.4-7.1h2.8l-7.5,7.9l7.6,7.9L132.5,46.7L132.5,46.7z"/>
	<path class="st1" d="M136.6,27.4c-0.3-0.3-0.4-0.6-0.4-1.1c0-0.4,0.1-0.8,0.4-1.1c0.3-0.3,0.6-0.4,1-0.4s0.8,0.1,1,0.4
		c0.3,0.3,0.4,0.6,0.4,1.1c0,0.4-0.1,0.8-0.4,1.1c-0.3,0.3-0.6,0.4-1,0.4S136.9,27.7,136.6,27.4z M138.6,30.8v15.8h-2V30.8H138.6z"
		/>
	<path class="st1" d="M154,32.3c1.2,1.2,1.8,2.9,1.8,5.1v9.3h-2v-9c0-1.7-0.4-3-1.3-3.9c-0.9-0.9-2-1.4-3.5-1.4s-2.7,0.5-3.7,1.4
		c-0.9,1-1.4,2.4-1.4,4.3v8.6h-2V30.8h2v2.7c0.5-1,1.2-1.7,2.2-2.2c0.9-0.5,2-0.8,3.2-0.8C151.3,30.5,152.8,31.1,154,32.3z"/>
	<path class="st1" d="M169.6,31.6c1.1,0.7,1.9,1.6,2.4,2.6v-3.4h2V47c0,1.4-0.3,2.7-0.9,3.9c-0.6,1.1-1.5,2-2.6,2.6
		s-2.4,0.9-3.8,0.9c-2,0-3.7-0.5-5.1-1.4c-1.3-1-2.2-2.3-2.5-3.9h2c0.3,1.1,1,2,2,2.6c1,0.7,2.2,1,3.6,1c1,0,1.9-0.2,2.8-0.7
		c0.8-0.4,1.4-1.1,1.9-1.9c0.5-0.9,0.7-1.9,0.7-3v-3.9c-0.5,1.1-1.3,2-2.4,2.7c-1.1,0.7-2.4,1.1-3.9,1.1c-1.4,0-2.7-0.3-3.9-1
		c-1.1-0.7-2-1.6-2.7-2.9c-0.6-1.2-1-2.7-1-4.3s0.3-3,1-4.3c0.6-1.2,1.5-2.2,2.7-2.8c1.1-0.7,2.4-1,3.9-1
		C167.2,30.6,168.5,30.9,169.6,31.6z M171.2,35.4c-0.5-1-1.2-1.7-2.1-2.2s-1.9-0.8-3-0.8s-2.1,0.3-3,0.8s-1.6,1.2-2.1,2.2
		s-0.8,2.1-0.8,3.4c0,1.3,0.3,2.4,0.8,3.4s1.2,1.7,2.1,2.2c0.9,0.5,1.9,0.8,3,0.8s2.1-0.3,3-0.8s1.6-1.3,2.1-2.2
		c0.5-1,0.8-2.1,0.8-3.4S171.7,36.3,171.2,35.4z"/>
</g>
<g class="st0">
	<path class="st2" d="M66.9,3.8v7.6h7.7V13h-7.7v7.7h8.6v1.7H64.9V2.1h10.6v1.7H66.9z"/>
	<path class="st2" d="M86.5,22.4L82.4,16l-3.9,6.4h-2.1l5.1-7.9l-5-7.9h2.3l4,6.3l3.9-6.3h2.1l-5,7.8l5.1,8H86.5z"/>
	<path class="st2" d="M94.7,7.4c1.1-0.7,2.4-1.1,3.9-1.1c1.4,0,2.7,0.3,3.9,1c1.1,0.7,2,1.6,2.7,2.8c0.6,1.2,1,2.7,1,4.3
		s-0.3,3.1-1,4.3c-0.6,1.2-1.5,2.2-2.7,2.9c-1.1,0.7-2.4,1-3.9,1s-2.8-0.4-3.9-1.1s-1.9-1.6-2.4-2.7v11h-2V6.6h2V10
		C92.8,9,93.6,8.1,94.7,7.4z M103.3,11c-0.5-1-1.2-1.7-2.1-2.2S99.3,8,98.2,8s-2.1,0.3-3,0.8s-1.6,1.3-2.1,2.2
		c-0.5,1-0.8,2.1-0.8,3.4s0.3,2.4,0.8,3.4s1.2,1.7,2.1,2.2s1.9,0.8,3,0.8s2.1-0.3,3-0.8s1.6-1.3,2.1-2.2c0.5-1,0.8-2.1,0.8-3.4
		C104.1,13.1,103.8,12,103.3,11z"/>
	<path class="st2" d="M122.9,15.2h-13.1c0.1,1.2,0.3,2.2,0.9,3.1c0.5,0.9,1.2,1.5,2.1,1.9s1.8,0.7,2.8,0.7c1.3,0,2.4-0.3,3.3-1
		c0.9-0.6,1.5-1.5,1.8-2.6h2.1c-0.4,1.5-1.2,2.8-2.5,3.8s-2.9,1.5-4.8,1.5c-1.5,0-2.8-0.3-4-1s-2.1-1.6-2.8-2.8
		c-0.7-1.2-1-2.7-1-4.3s0.3-3.1,1-4.3s1.6-2.2,2.8-2.8c1.2-0.7,2.5-1,4-1s2.8,0.3,4,1s2,1.5,2.6,2.7c0.6,1.1,0.9,2.3,0.9,3.7
		C122.9,14.3,122.9,14.9,122.9,15.2z M120.2,10.6c-0.5-0.8-1.2-1.5-2-1.9c-0.9-0.4-1.8-0.6-2.8-0.6c-1.5,0-2.8,0.5-3.9,1.4
		c-1.1,1-1.7,2.3-1.8,4.1h11.1C120.9,12.4,120.7,11.4,120.2,10.6z"/>
	<path class="st2" d="M137.5,8c1.2,1.2,1.8,2.9,1.8,5.1v9.3h-2v-9c0-1.7-0.4-3-1.3-3.9c-0.9-0.9-2-1.4-3.5-1.4s-2.7,0.5-3.7,1.4
		c-0.9,1-1.4,2.4-1.4,4.3v8.6h-2V6.6h2v2.7c0.5-1,1.2-1.7,2.2-2.2c0.9-0.5,2-0.8,3.2-0.8C134.7,6.3,136.3,6.8,137.5,8z"/>
	<path class="st2" d="M143.5,21.3c-1.1-0.8-1.8-2-1.9-3.4h2.1c0.1,0.9,0.5,1.6,1.3,2.2c0.7,0.6,1.7,0.8,3,0.8c1.1,0,2-0.3,2.6-0.8
		s0.9-1.2,0.9-1.9c0-0.5-0.2-1-0.5-1.3s-0.8-0.6-1.3-0.8c-0.5-0.2-1.3-0.4-2.2-0.7c-1.2-0.3-2.1-0.6-2.9-0.9s-1.4-0.8-1.9-1.4
		c-0.5-0.6-0.8-1.4-0.8-2.4c0-0.8,0.2-1.5,0.7-2.1c0.5-0.7,1.1-1.2,2-1.6s1.8-0.6,2.9-0.6c1.7,0,3.1,0.4,4.1,1.3s1.6,2,1.7,3.6h-2
		c-0.1-0.9-0.4-1.7-1.1-2.2c-0.7-0.6-1.6-0.9-2.7-0.9c-1,0-1.9,0.2-2.5,0.7s-1,1.1-1,1.8c0,0.6,0.2,1.1,0.6,1.5
		c0.4,0.4,0.8,0.7,1.4,0.9c0.6,0.2,1.3,0.5,2.3,0.7c1.1,0.3,2,0.6,2.7,0.9s1.3,0.7,1.7,1.3c0.5,0.6,0.7,1.3,0.8,2.2
		c0,0.9-0.2,1.6-0.7,2.3c-0.5,0.7-1.1,1.2-1.9,1.6c-0.8,0.4-1.8,0.6-2.9,0.6C146.1,22.6,144.6,22.2,143.5,21.3z"/>
	<path class="st2" d="M170.3,15.2h-13.1c0.1,1.2,0.3,2.2,0.9,3.1c0.5,0.9,1.2,1.5,2.1,1.9c0.9,0.4,1.8,0.7,2.8,0.7
		c1.3,0,2.4-0.3,3.3-1c0.9-0.6,1.5-1.5,1.8-2.6h2.1c-0.4,1.5-1.2,2.8-2.5,3.8s-2.9,1.5-4.8,1.5c-1.5,0-2.8-0.3-4-1s-2.1-1.6-2.8-2.8
		c-0.7-1.2-1-2.7-1-4.3s0.3-3.1,1-4.3s1.6-2.2,2.8-2.8c1.2-0.7,2.5-1,4-1s2.8,0.3,4,1s2,1.5,2.6,2.7c0.6,1.1,0.9,2.3,0.9,3.7
		C170.4,14.3,170.3,14.9,170.3,15.2z M167.6,10.6c-0.5-0.8-1.2-1.5-2-1.9c-0.9-0.4-1.8-0.6-2.8-0.6c-1.5,0-2.8,0.5-3.9,1.4
		c-1.1,1-1.7,2.3-1.8,4.1h11.1C168.3,12.4,168.1,11.4,167.6,10.6z"/>
</g>
<g id="Layer_1-2">
	<path class="st3" d="M10.4,37.3c-0.5,0-0.8-0.4-0.8-0.8v-33c0-1.4,1.1-2.5,2.5-2.5h24.7c1.4,0,2.5,1.1,2.5,2.5v23.1
		c0,0.5-0.4,0.8-0.8,0.8s-0.8-0.4-0.8-0.8V3.5c0-0.5-0.4-0.8-0.8-0.8H12.1c-0.5,0-0.8,0.4-0.8,0.8v33C11.2,36.9,10.9,37.3,10.4,37.3
		z"/>
	<path class="st3" d="M30.2,45.5H6.3c-0.5,0-0.8-0.4-0.8-0.8s0.4-0.8,0.8-0.8h23.9c0.5,0,0.8,0.4,0.8,0.8S30.7,45.5,30.2,45.5z"/>
	<path class="st3" d="M6.3,45.5c-2.7,0-4.9-2.2-4.9-4.9v-2.5c0-1.4,1.1-2.5,2.5-2.5h6.6c0.5,0,0.8,0.4,0.8,0.8v4.1
		C11.2,43.3,9,45.5,6.3,45.5z M3.8,37.3c-0.5,0-0.8,0.4-0.8,0.8v2.5c0,1.8,1.5,3.3,3.3,3.3s3.3-1.5,3.3-3.3v-3.3H3.8z"/>
	<path class="st4" d="M24.4,25.7c-5.5,0-9.9-4.4-9.9-9.9s4.4-9.9,9.9-9.9c0.5,0,0.8,0.4,0.8,0.8v8.7l6.2,6.2
		c0.1,0.1,0.2,0.4,0.2,0.6s-0.1,0.4-0.2,0.6C29.6,24.7,27.1,25.7,24.4,25.7L24.4,25.7z M23.6,7.6c-4.2,0.4-7.4,3.9-7.4,8.2
		c0,4.6,3.7,8.2,8.2,8.2c1.9,0,3.7-0.7,5.2-1.9l-5.8-5.8c-0.1-0.1-0.2-0.4-0.2-0.6L23.6,7.6L23.6,7.6z"/>
	<path class="st4" d="M30.9,23.1c-0.2,0-0.4-0.1-0.6-0.2l-6.4-6.4c-0.1-0.1-0.2-0.4-0.2-0.6V6.8c0-0.5,0.4-0.8,0.8-0.8
		c5.5,0,9.9,4.4,9.9,9.9c0,2.6-1,5.1-2.9,7C31.3,23,31.1,23.1,30.9,23.1z M25.3,15.5l5.6,5.6c1.2-1.5,1.9-3.3,1.9-5.2
		c0-4.3-3.3-7.8-7.4-8.2C25.3,7.6,25.3,15.5,25.3,15.5z"/>
	<path class="st5" d="M30.2,30.7H15.4c-0.5,0-0.8-0.4-0.8-0.8c0-0.5,0.4-0.8,0.8-0.8h14.8c0.5,0,0.8,0.4,0.8,0.8
		C31,30.3,30.7,30.7,30.2,30.7z"/>
	<path class="st5" d="M30.2,35.6H15.4c-0.5,0-0.8-0.4-0.8-0.8S15,34,15.4,34h14.8c0.5,0,0.8,0.4,0.8,0.8S30.7,35.6,30.2,35.6z"/>
	<path class="st5" d="M30.2,40.6H15.4c-0.5,0-0.8-0.4-0.8-0.8c0-0.5,0.4-0.8,0.8-0.8h14.8c0.5,0,0.8,0.4,0.8,0.8
		C31,40.2,30.7,40.6,30.2,40.6z"/>
	<path class="st4" d="M50,53.8H33.5c-2.3,0-4.1-1.8-4.1-4.1V29.9c0-2.3,1.8-4.1,4.1-4.1H50c2.3,0,4.1,1.8,4.1,4.1v19.8
		C54.1,51.9,52.3,53.8,50,53.8z M33.5,27.4c-1.4,0-2.5,1.1-2.5,2.5v19.8c0,1.4,1.1,2.5,2.5,2.5H50c1.4,0,2.5-1.1,2.5-2.5V29.9
		c0-1.4-1.1-2.5-2.5-2.5H33.5z"/>
	<path class="st3" d="M48.4,37.3H35.2c-1.4,0-2.5-1.1-2.5-2.5v-3.3c0-1.4,1.1-2.5,2.5-2.5h13.2c1.4,0,2.5,1.1,2.5,2.5v3.3
		C50.8,36.2,49.7,37.3,48.4,37.3z M35.2,30.7c-0.5,0-0.8,0.4-0.8,0.8v3.3c0,0.5,0.4,0.8,0.8,0.8h13.2c0.5,0,0.8-0.4,0.8-0.8v-3.3
		c0-0.5-0.4-0.8-0.8-0.8H35.2z"/>
	<path class="st5" d="M35.2,43.9c-1.4,0-2.5-1.1-2.5-2.5s1.1-2.5,2.5-2.5s2.5,1.1,2.5,2.5S36.5,43.9,35.2,43.9z M35.2,40.6
		c-0.5,0-0.8,0.4-0.8,0.8c0,0.5,0.4,0.8,0.8,0.8s0.8-0.4,0.8-0.8S35.6,40.6,35.2,40.6z"/>
	<path class="st5" d="M41.8,43.9c-1.4,0-2.5-1.1-2.5-2.5s1.1-2.5,2.5-2.5s2.5,1.1,2.5,2.5S43.1,43.9,41.8,43.9z M41.8,40.6
		c-0.5,0-0.8,0.4-0.8,0.8c0,0.5,0.4,0.8,0.8,0.8c0.5,0,0.8-0.4,0.8-0.8S42.2,40.6,41.8,40.6z"/>
	<path class="st5" d="M48.4,50.5c-1.4,0-2.5-1.1-2.5-2.5v-6.6c0-1.4,1.1-2.5,2.5-2.5s2.5,1.1,2.5,2.5V48
		C50.8,49.4,49.7,50.5,48.4,50.5z M48.4,40.6c-0.5,0-0.8,0.4-0.8,0.8V48c0,0.5,0.4,0.8,0.8,0.8s0.8-0.4,0.8-0.8v-6.6
		C49.2,41,48.8,40.6,48.4,40.6z"/>
	<path class="st5" d="M35.2,50.5c-1.4,0-2.5-1.1-2.5-2.5s1.1-2.5,2.5-2.5s2.5,1.1,2.5,2.5S36.5,50.5,35.2,50.5z M35.2,47.2
		c-0.5,0-0.8,0.4-0.8,0.8s0.4,0.8,0.8,0.8S36,48.5,36,48S35.6,47.2,35.2,47.2z"/>
	<path class="st5" d="M41.8,50.5c-1.4,0-2.5-1.1-2.5-2.5s1.1-2.5,2.5-2.5s2.5,1.1,2.5,2.5S43.1,50.5,41.8,50.5z M41.8,47.2
		c-0.5,0-0.8,0.4-0.8,0.8s0.4,0.8,0.8,0.8c0.5,0,0.8-0.4,0.8-0.8S42.2,47.2,41.8,47.2z"/>
</g>
<g>
	<path class="st4" d="M81.7,41.3l-4.5-4.2c-1,0.3-2,0.4-3.1,0.4c-1.9,0-3.6-0.4-5.1-1.3s-2.7-2.1-3.6-3.7C64.5,31,64,29.2,64,27.2
		c0-2,0.4-3.8,1.3-5.3c0.9-1.6,2.1-2.8,3.6-3.7c1.5-0.9,3.2-1.3,5.1-1.3c1.9,0,3.6,0.4,5.1,1.3c1.5,0.9,2.7,2.1,3.6,3.7
		c0.9,1.6,1.3,3.4,1.3,5.3c0,2-0.5,3.9-1.4,5.5c-0.9,1.6-2.2,2.8-3.7,3.7l5.4,5H81.7z M67.2,31.8c0.7,1.3,1.6,2.3,2.8,3
		c1.2,0.7,2.5,1,4.1,1c1.5,0,2.9-0.3,4.1-1c1.2-0.7,2.1-1.7,2.8-3s1-2.8,1-4.5c0-1.7-0.3-3.2-1-4.5s-1.6-2.3-2.8-3
		c-1.2-0.7-2.5-1-4.1-1c-1.5,0-2.9,0.3-4.1,1s-2.1,1.7-2.8,3c-0.7,1.3-1,2.8-1,4.5C66.1,29,66.5,30.5,67.2,31.8z"/>
	<path class="st4" d="M100.2,21.6v15.8h-2v-2.8c-0.5,1-1.2,1.7-2.1,2.3c-1,0.5-2,0.8-3.2,0.8c-1.9,0-3.4-0.6-4.6-1.8
		c-1.2-1.2-1.8-2.9-1.8-5.1v-9.2h2v9c0,1.7,0.4,3,1.3,3.9c0.9,0.9,2,1.4,3.5,1.4c1.5,0,2.7-0.5,3.6-1.4c0.9-1,1.4-2.4,1.4-4.3v-8.6
		H100.2z"/>
	<path class="st4" d="M106.4,36.6c-1.2-0.7-2.1-1.6-2.8-2.8c-0.7-1.2-1-2.7-1-4.3c0-1.6,0.3-3.1,1-4.3c0.7-1.2,1.6-2.2,2.8-2.8
		c1.2-0.7,2.5-1,4-1c1.5,0,2.8,0.3,4,1c1.2,0.7,2.2,1.6,2.8,2.8c0.7,1.2,1,2.7,1,4.3c0,1.6-0.3,3-1,4.3c-0.7,1.2-1.7,2.2-2.9,2.9
		c-1.2,0.7-2.6,1-4.1,1C109,37.6,107.6,37.3,106.4,36.6z M113.3,35.1c0.9-0.5,1.6-1.2,2.2-2.1c0.5-1,0.8-2.1,0.8-3.5
		c0-1.4-0.3-2.6-0.8-3.5s-1.3-1.7-2.1-2.1c-0.9-0.5-1.9-0.7-2.9-0.7c-1,0-2,0.2-2.9,0.7c-0.9,0.5-1.6,1.2-2.1,2.1s-0.8,2.1-0.8,3.5
		c0,1.4,0.3,2.6,0.8,3.5s1.2,1.7,2.1,2.1c0.9,0.5,1.8,0.7,2.9,0.7S112.4,35.6,113.3,35.1z"/>
	<path class="st4" d="M123.4,23.3v9.8c0,1,0.2,1.6,0.5,2c0.4,0.4,1,0.5,1.9,0.5h1.9v1.7h-2.2c-1.4,0-2.5-0.3-3.2-1
		c-0.7-0.7-1-1.8-1-3.3v-9.8h-2.2v-1.7h2.2v-4h2.1v4h4.3v1.7H123.4z"/>
	<path class="st4" d="M129.8,25.2c0.6-1.2,1.5-2.2,2.7-2.8c1.1-0.7,2.4-1,3.9-1c1.5,0,2.8,0.3,3.9,1c1.1,0.7,1.9,1.6,2.4,2.7v-3.5h2
		v15.8h-2v-3.5c-0.5,1.1-1.3,2-2.4,2.7c-1.1,0.7-2.4,1.1-3.9,1.1c-1.4,0-2.7-0.3-3.9-1c-1.1-0.7-2-1.6-2.7-2.9c-0.6-1.2-1-2.7-1-4.3
		S129.2,26.4,129.8,25.2z M141.9,26.1c-0.5-1-1.2-1.7-2.1-2.2s-1.9-0.8-3-0.8c-1.1,0-2.1,0.3-3,0.8c-0.9,0.5-1.6,1.2-2.1,2.2
		c-0.5,1-0.8,2.1-0.8,3.4c0,1.3,0.3,2.4,0.8,3.4c0.5,1,1.2,1.7,2.1,2.2c0.9,0.5,1.9,0.8,3,0.8c1.1,0,2.1-0.3,3-0.8
		c0.9-0.5,1.6-1.3,2.1-2.2c0.5-1,0.8-2.1,0.8-3.4S142.4,27.1,141.9,26.1z"/>
	<path class="st4" d="M150.7,23.3v9.8c0,1,0.2,1.6,0.5,2c0.4,0.4,1,0.5,1.9,0.5h1.9v1.7h-2.2c-1.4,0-2.5-0.3-3.2-1
		c-0.7-0.7-1-1.8-1-3.3v-9.8h-2.2v-1.7h2.2v-4h2.1v4h4.3v1.7H150.7z"/>
	<path class="st4" d="M157,18.2c-0.3-0.3-0.4-0.6-0.4-1.1c0-0.4,0.1-0.8,0.4-1.1c0.3-0.3,0.6-0.4,1-0.4s0.8,0.1,1,0.4
		c0.3,0.3,0.4,0.6,0.4,1.1c0,0.4-0.1,0.8-0.4,1.1c-0.3,0.3-0.6,0.4-1,0.4S157.3,18.4,157,18.2z M159.1,21.6v15.8h-2V21.6H159.1z"/>
	<path class="st4" d="M165.3,36.6c-1.2-0.7-2.1-1.6-2.8-2.8c-0.7-1.2-1-2.7-1-4.3c0-1.6,0.3-3.1,1-4.3c0.7-1.2,1.6-2.2,2.8-2.8
		c1.2-0.7,2.5-1,4-1s2.8,0.3,4,1c1.2,0.7,2.2,1.6,2.8,2.8c0.7,1.2,1,2.7,1,4.3c0,1.6-0.3,3-1,4.3c-0.7,1.2-1.7,2.2-2.9,2.9
		c-1.2,0.7-2.6,1-4.1,1C167.8,37.6,166.5,37.3,165.3,36.6z M172.2,35.1c0.9-0.5,1.6-1.2,2.2-2.1c0.5-1,0.8-2.1,0.8-3.5
		c0-1.4-0.3-2.6-0.8-3.5s-1.3-1.7-2.1-2.1c-0.9-0.5-1.9-0.7-2.9-0.7c-1,0-2,0.2-2.9,0.7c-0.9,0.5-1.6,1.2-2.1,2.1
		c-0.5,1-0.8,2.1-0.8,3.5c0,1.4,0.3,2.6,0.8,3.5c0.5,1,1.2,1.7,2.1,2.1c0.9,0.5,1.8,0.7,2.9,0.7S171.3,35.6,172.2,35.1z"/>
	<path class="st4" d="M191.7,23c1.2,1.2,1.8,2.9,1.8,5.1v9.3h-2v-9c0-1.7-0.4-3-1.3-3.9c-0.9-0.9-2-1.4-3.5-1.4
		c-1.5,0-2.7,0.5-3.6,1.4c-0.9,1-1.4,2.4-1.4,4.3v8.6h-2V21.6h2v2.7c0.5-1,1.2-1.7,2.2-2.2c0.9-0.5,2-0.8,3.2-0.8
		C189,21.3,190.5,21.9,191.7,23z"/>
	<path class="st4" d="M197.7,36.3c-1.1-0.8-1.8-2-1.9-3.4h2.1c0.1,0.9,0.5,1.6,1.3,2.2c0.7,0.6,1.7,0.8,3,0.8c1.1,0,2-0.3,2.6-0.8
		c0.6-0.5,0.9-1.2,0.9-1.9c0-0.5-0.2-1-0.5-1.3c-0.3-0.3-0.8-0.6-1.3-0.8c-0.5-0.2-1.2-0.4-2.2-0.7c-1.2-0.3-2.1-0.6-2.9-0.9
		c-0.7-0.3-1.4-0.8-1.9-1.4c-0.5-0.6-0.8-1.4-0.8-2.4c0-0.8,0.2-1.5,0.7-2.1c0.5-0.7,1.1-1.2,2-1.6c0.8-0.4,1.8-0.6,2.9-0.6
		c1.7,0,3.1,0.4,4.1,1.3c1,0.9,1.6,2,1.7,3.5h-2c-0.1-0.9-0.4-1.7-1.1-2.2c-0.7-0.6-1.6-0.9-2.7-0.9c-1,0-1.9,0.2-2.5,0.7
		c-0.6,0.5-1,1.1-1,1.8c0,0.6,0.2,1.1,0.6,1.5c0.4,0.4,0.8,0.7,1.4,0.9c0.6,0.2,1.3,0.5,2.3,0.7c1.1,0.3,2,0.6,2.7,0.9
		s1.3,0.7,1.7,1.3c0.5,0.6,0.7,1.3,0.8,2.2c0,0.8-0.2,1.6-0.7,2.3s-1.1,1.2-1.9,1.6c-0.8,0.4-1.8,0.6-2.9,0.6
		C200.3,37.6,198.8,37.2,197.7,36.3z"/>
</g>
</svg>
