<?xml version="1.0" encoding="utf-8"?>
<!-- Generator: Adobe Illustrator 27.0.1, SVG Export Plug-In . SVG Version: 6.00 Build 0)  -->
<svg version="1.0" id="Layer_1" xmlns="http://www.w3.org/2000/svg" xmlns:xlink="http://www.w3.org/1999/xlink" x="0px" y="0px"
	 viewBox="0 0 246 55" style="enable-background:new 0 0 246 55;" xml:space="preserve">
<style type="text/css">
	.st0{display:none;}
	.st1{display:inline;fill:#64B0AE;}
	.st2{display:inline;fill:#465A65;}
	.st3{fill:#64B0AE;}
	.st4{fill:#465A65;}
	.st5{fill:#DADDE2;}
	.st6{fill:#DDE5ED;}
</style>
<g class="st0">
	<path class="st1" d="M77.9,26.4v1.7h-5.6v18.6h-2V28.1h-5.7v-1.7H77.9z"/>
	<path class="st1" d="M83.9,31.4c0.9-0.5,2-0.8,3.4-0.8v2.1h-0.6c-1.5,0-2.6,0.4-3.5,1.2c-0.9,0.8-1.3,2.1-1.3,4v8.8h-2V30.8h2v2.8
		C82.3,32.7,83,31.9,83.9,31.4z"/>
	<path class="st1" d="M89.1,34.4c0.6-1.2,1.5-2.2,2.7-2.8c1.1-0.7,2.4-1,3.9-1c1.5,0,2.8,0.3,3.9,1c1.1,0.7,1.9,1.6,2.4,2.7v-3.5h2
		v15.8h-2v-3.5c-0.5,1.1-1.3,2-2.4,2.7c-1.1,0.7-2.4,1.1-3.9,1.1c-1.4,0-2.7-0.3-3.9-1c-1.1-0.7-2-1.6-2.7-2.9c-0.6-1.2-1-2.7-1-4.3
		S88.5,35.7,89.1,34.4z M101.2,35.4c-0.5-1-1.2-1.7-2.1-2.2s-1.9-0.8-3-0.8c-1.1,0-2.1,0.3-3,0.8c-0.9,0.5-1.6,1.2-2.1,2.2
		c-0.5,1-0.8,2.1-0.8,3.4c0,1.3,0.3,2.4,0.8,3.4c0.5,1,1.2,1.7,2.1,2.2c0.9,0.5,1.9,0.8,3,0.8c1.1,0,2.1-0.3,3-0.8s1.6-1.3,2.1-2.2
		c0.5-1,0.8-2.1,0.8-3.4S101.7,36.3,101.2,35.4z"/>
	<path class="st1" d="M107.5,34.4c0.7-1.2,1.6-2.2,2.7-2.8c1.2-0.7,2.5-1,4-1c2,0,3.6,0.5,4.8,1.4c1.3,1,2.1,2.3,2.4,3.9h-2.2
		c-0.3-1.1-0.9-2-1.8-2.7c-0.9-0.6-2-1-3.3-1c-1.1,0-2,0.2-2.9,0.7c-0.9,0.5-1.5,1.2-2,2.2s-0.7,2.1-0.7,3.5c0,1.4,0.2,2.6,0.7,3.5
		c0.5,1,1.2,1.7,2,2.2c0.9,0.5,1.8,0.7,2.9,0.7c1.3,0,2.4-0.3,3.3-1c0.9-0.6,1.5-1.6,1.8-2.7h2.2c-0.4,1.6-1.2,2.9-2.5,3.9
		c-1.3,1-2.9,1.5-4.8,1.5c-1.5,0-2.8-0.3-4-1c-1.2-0.7-2.1-1.6-2.7-2.8c-0.7-1.2-1-2.7-1-4.3S106.8,35.7,107.5,34.4z"/>
	<path class="st1" d="M132.5,46.7l-6.5-7.1v7.1h-2V25.2h2v12.7l6.4-7.1h2.8l-7.5,7.9l7.6,7.9H132.5z"/>
	<path class="st1" d="M136.6,27.4c-0.3-0.3-0.4-0.6-0.4-1.1c0-0.4,0.1-0.8,0.4-1.1c0.3-0.3,0.6-0.4,1-0.4s0.8,0.1,1,0.4
		c0.3,0.3,0.4,0.6,0.4,1.1c0,0.4-0.1,0.8-0.4,1.1c-0.3,0.3-0.6,0.4-1,0.4S136.9,27.7,136.6,27.4z M138.6,30.8v15.8h-2V30.8H138.6z"
		/>
	<path class="st1" d="M154,32.3c1.2,1.2,1.8,2.9,1.8,5.1v9.3h-2v-9c0-1.7-0.4-3-1.3-3.9c-0.9-0.9-2-1.4-3.5-1.4
		c-1.5,0-2.7,0.5-3.7,1.4c-0.9,1-1.4,2.4-1.4,4.3v8.6h-2V30.8h2v2.7c0.5-1,1.2-1.7,2.2-2.2c0.9-0.5,2-0.8,3.2-0.8
		C151.3,30.5,152.8,31.1,154,32.3z"/>
	<path class="st1" d="M169.6,31.6c1.1,0.7,1.9,1.6,2.4,2.6v-3.4h2v16.2c0,1.4-0.3,2.7-0.9,3.9c-0.6,1.1-1.5,2-2.6,2.6
		s-2.4,0.9-3.8,0.9c-2,0-3.7-0.5-5.1-1.4c-1.3-1-2.2-2.3-2.5-3.9h2c0.3,1.1,1,2,2,2.6c1,0.7,2.2,1,3.6,1c1,0,1.9-0.2,2.8-0.7
		c0.8-0.4,1.4-1.1,1.9-1.9c0.5-0.9,0.7-1.9,0.7-3v-3.9c-0.5,1.1-1.3,2-2.4,2.7c-1.1,0.7-2.4,1.1-3.9,1.1c-1.4,0-2.7-0.3-3.9-1
		c-1.1-0.7-2-1.6-2.7-2.9c-0.6-1.2-1-2.7-1-4.3s0.3-3,1-4.3c0.6-1.2,1.5-2.2,2.7-2.8c1.1-0.7,2.4-1,3.9-1
		C167.2,30.6,168.5,30.9,169.6,31.6z M171.2,35.4c-0.5-1-1.2-1.7-2.1-2.2s-1.9-0.8-3-0.8c-1.1,0-2.1,0.3-3,0.8
		c-0.9,0.5-1.6,1.2-2.1,2.2c-0.5,1-0.8,2.1-0.8,3.4c0,1.3,0.3,2.4,0.8,3.4c0.5,1,1.2,1.7,2.1,2.2c0.9,0.5,1.9,0.8,3,0.8
		c1.1,0,2.1-0.3,3-0.8s1.6-1.3,2.1-2.2c0.5-1,0.8-2.1,0.8-3.4S171.7,36.3,171.2,35.4z"/>
</g>
<g class="st0">
	<path class="st2" d="M66.9,3.8v7.6h7.7V13h-7.7v7.7h8.6v1.7H64.9V2.1h10.6v1.7H66.9z"/>
	<path class="st2" d="M86.5,22.4L82.4,16l-3.9,6.4h-2.1l5.1-7.9l-5-7.9h2.3l4,6.3l3.9-6.3h2.1l-5,7.8l5.1,8H86.5z"/>
	<path class="st2" d="M94.7,7.4c1.1-0.7,2.4-1.1,3.9-1.1c1.4,0,2.7,0.3,3.9,1c1.1,0.7,2,1.6,2.7,2.8c0.6,1.2,1,2.7,1,4.3
		s-0.3,3.1-1,4.3c-0.6,1.2-1.5,2.2-2.7,2.9c-1.1,0.7-2.4,1-3.9,1c-1.5,0-2.8-0.4-3.9-1.1c-1.1-0.7-1.9-1.6-2.4-2.7v11h-2V6.6h2V10
		C92.8,9,93.6,8.1,94.7,7.4z M103.3,11c-0.5-1-1.2-1.7-2.1-2.2s-1.9-0.8-3-0.8c-1.1,0-2.1,0.3-3,0.8s-1.6,1.3-2.1,2.2
		c-0.5,1-0.8,2.1-0.8,3.4c0,1.3,0.3,2.4,0.8,3.4c0.5,1,1.2,1.7,2.1,2.2c0.9,0.5,1.9,0.8,3,0.8c1.1,0,2.1-0.3,3-0.8s1.6-1.3,2.1-2.2
		c0.5-1,0.8-2.1,0.8-3.4C104.1,13.1,103.8,12,103.3,11z"/>
	<path class="st2" d="M122.9,15.2h-13.1c0.1,1.2,0.3,2.2,0.9,3.1c0.5,0.9,1.2,1.5,2.1,1.9c0.9,0.4,1.8,0.7,2.8,0.7
		c1.3,0,2.4-0.3,3.3-1c0.9-0.6,1.5-1.5,1.8-2.6h2.1c-0.4,1.5-1.2,2.8-2.5,3.8c-1.3,1-2.9,1.5-4.8,1.5c-1.5,0-2.8-0.3-4-1
		s-2.1-1.6-2.8-2.8c-0.7-1.2-1-2.7-1-4.3s0.3-3.1,1-4.3c0.7-1.2,1.6-2.2,2.8-2.8c1.2-0.7,2.5-1,4-1c1.5,0,2.8,0.3,4,1s2,1.5,2.6,2.7
		c0.6,1.1,0.9,2.3,0.9,3.7C122.9,14.3,122.9,14.9,122.9,15.2z M120.2,10.6c-0.5-0.8-1.2-1.5-2-1.9c-0.9-0.4-1.8-0.6-2.8-0.6
		c-1.5,0-2.8,0.5-3.9,1.4c-1.1,1-1.7,2.3-1.8,4.1h11.1C120.9,12.4,120.7,11.4,120.2,10.6z"/>
	<path class="st2" d="M137.5,8c1.2,1.2,1.8,2.9,1.8,5.1v9.3h-2v-9c0-1.7-0.4-3-1.3-3.9c-0.9-0.9-2-1.4-3.5-1.4
		c-1.5,0-2.7,0.5-3.7,1.4c-0.9,1-1.4,2.4-1.4,4.3v8.6h-2V6.6h2v2.7c0.5-1,1.2-1.7,2.2-2.2c0.9-0.5,2-0.8,3.2-0.8
		C134.7,6.3,136.3,6.8,137.5,8z"/>
	<path class="st2" d="M143.5,21.3c-1.1-0.8-1.8-2-1.9-3.4h2.1c0.1,0.9,0.5,1.6,1.3,2.2c0.7,0.6,1.7,0.8,3,0.8c1.1,0,2-0.3,2.6-0.8
		c0.6-0.5,0.9-1.2,0.9-1.9c0-0.5-0.2-1-0.5-1.3s-0.8-0.6-1.3-0.8c-0.5-0.2-1.3-0.4-2.2-0.7c-1.2-0.3-2.1-0.6-2.9-0.9
		s-1.4-0.8-1.9-1.4c-0.5-0.6-0.8-1.4-0.8-2.4c0-0.8,0.2-1.5,0.7-2.1c0.5-0.7,1.1-1.2,2-1.6s1.8-0.6,2.9-0.6c1.7,0,3.1,0.4,4.1,1.3
		c1,0.9,1.6,2,1.7,3.6h-2c-0.1-0.9-0.4-1.7-1.1-2.2c-0.7-0.6-1.6-0.9-2.7-0.9c-1,0-1.9,0.2-2.5,0.7c-0.6,0.5-1,1.1-1,1.8
		c0,0.6,0.2,1.1,0.6,1.5c0.4,0.4,0.8,0.7,1.4,0.9c0.6,0.2,1.3,0.5,2.3,0.7c1.1,0.3,2,0.6,2.7,0.9s1.3,0.7,1.7,1.3
		c0.5,0.6,0.7,1.3,0.8,2.2c0,0.9-0.2,1.6-0.7,2.3c-0.5,0.7-1.1,1.2-1.9,1.6c-0.8,0.4-1.8,0.6-2.9,0.6
		C146.1,22.6,144.6,22.2,143.5,21.3z"/>
	<path class="st2" d="M170.3,15.2h-13.1c0.1,1.2,0.3,2.2,0.9,3.1c0.5,0.9,1.2,1.5,2.1,1.9c0.9,0.4,1.8,0.7,2.8,0.7
		c1.3,0,2.4-0.3,3.3-1c0.9-0.6,1.5-1.5,1.8-2.6h2.1c-0.4,1.5-1.2,2.8-2.5,3.8c-1.3,1-2.9,1.5-4.8,1.5c-1.5,0-2.8-0.3-4-1
		s-2.1-1.6-2.8-2.8c-0.7-1.2-1-2.7-1-4.3s0.3-3.1,1-4.3c0.7-1.2,1.6-2.2,2.8-2.8c1.2-0.7,2.5-1,4-1c1.5,0,2.8,0.3,4,1s2,1.5,2.6,2.7
		c0.6,1.1,0.9,2.3,0.9,3.7C170.4,14.3,170.3,14.9,170.3,15.2z M167.6,10.6c-0.5-0.8-1.2-1.5-2-1.9c-0.9-0.4-1.8-0.6-2.8-0.6
		c-1.5,0-2.8,0.5-3.9,1.4c-1.1,1-1.7,2.3-1.8,4.1h11.1C168.3,12.4,168.1,11.4,167.6,10.6z"/>
</g>
<g>
	<path class="st3" d="M75.5,37.5l-5-8.5h-3.7v8.5h-2V17.2h6.1c2.3,0,4,0.5,5.1,1.6c1.2,1.1,1.8,2.5,1.8,4.3c0,1.5-0.4,2.7-1.3,3.8
		c-0.8,1-2.1,1.7-3.7,2l5.2,8.6H75.5z M66.8,27.3h4.1c1.6,0,2.8-0.4,3.6-1.2c0.8-0.8,1.2-1.8,1.2-3.1c0-1.3-0.4-2.4-1.2-3.1
		c-0.8-0.7-2-1.1-3.7-1.1h-4.1V27.3z"/>
	<path class="st3" d="M94.8,30.3H81.7c0.1,1.2,0.3,2.2,0.9,3.1c0.5,0.9,1.2,1.5,2.1,1.9c0.9,0.4,1.8,0.7,2.8,0.7
		c1.3,0,2.4-0.3,3.3-1s1.5-1.5,1.8-2.6h2.1c-0.4,1.5-1.2,2.8-2.5,3.8c-1.3,1-2.9,1.5-4.8,1.5c-1.5,0-2.8-0.3-4-1
		c-1.2-0.7-2.1-1.6-2.8-2.8c-0.7-1.2-1-2.7-1-4.3s0.3-3.1,1-4.3c0.7-1.2,1.6-2.2,2.8-2.8c1.2-0.7,2.5-1,4-1c1.5,0,2.8,0.3,4,1
		c1.1,0.7,2,1.5,2.6,2.7c0.6,1.1,0.9,2.3,0.9,3.7C94.8,29.4,94.8,30,94.8,30.3z M92.1,25.7c-0.5-0.8-1.2-1.5-2-1.9
		c-0.9-0.4-1.8-0.6-2.8-0.6c-1.5,0-2.8,0.5-3.9,1.4c-1.1,1-1.7,2.3-1.8,4.1h11.1C92.8,27.5,92.6,26.5,92.1,25.7z"/>
	<path class="st3" d="M101.7,22.5c1.1-0.7,2.4-1.1,3.9-1.1c1.4,0,2.7,0.3,3.9,1c1.1,0.7,2,1.6,2.7,2.8c0.6,1.2,1,2.7,1,4.3
		s-0.3,3.1-1,4.3c-0.6,1.2-1.5,2.2-2.7,2.9c-1.1,0.7-2.4,1-3.9,1c-1.5,0-2.8-0.4-3.9-1.1c-1.1-0.7-1.9-1.6-2.4-2.7v11h-2V21.6h2v3.5
		C99.8,24.1,100.6,23.2,101.7,22.5z M110.3,26.1c-0.5-1-1.2-1.7-2.1-2.2c-0.9-0.5-1.9-0.8-3-0.8c-1.1,0-2.1,0.3-3,0.8
		s-1.6,1.3-2.1,2.2c-0.5,1-0.8,2.1-0.8,3.4s0.3,2.4,0.8,3.4c0.5,1,1.2,1.7,2.1,2.2s1.9,0.8,3,0.8c1.1,0,2.1-0.3,3-0.8
		s1.6-1.3,2.1-2.2c0.5-1,0.8-2.1,0.8-3.4C111.1,28.2,110.8,27.1,110.3,26.1z"/>
	<path class="st3" d="M118.5,36.7c-1.2-0.7-2.1-1.6-2.8-2.8c-0.7-1.2-1-2.7-1-4.3s0.3-3.1,1-4.3c0.7-1.2,1.6-2.2,2.8-2.8
		c1.2-0.7,2.5-1,4-1s2.8,0.3,4,1c1.2,0.7,2.2,1.6,2.8,2.8c0.7,1.2,1,2.7,1,4.3c0,1.6-0.3,3.1-1,4.3c-0.7,1.2-1.7,2.2-2.9,2.9
		c-1.2,0.7-2.6,1-4.1,1C121.1,37.7,119.7,37.4,118.5,36.7z M125.5,35.2c0.9-0.5,1.6-1.2,2.2-2.1c0.6-1,0.8-2.1,0.8-3.5
		c0-1.4-0.3-2.6-0.8-3.5c-0.5-1-1.3-1.7-2.1-2.1c-0.9-0.5-1.9-0.7-2.9-0.7s-2,0.2-2.9,0.7s-1.6,1.2-2.1,2.1c-0.5,1-0.8,2.1-0.8,3.5
		c0,1.4,0.3,2.6,0.8,3.5c0.5,1,1.2,1.7,2.1,2.1c0.9,0.5,1.8,0.7,2.9,0.7C123.6,35.9,124.6,35.7,125.5,35.2z"/>
	<path class="st3" d="M137.1,22.2c0.9-0.5,2-0.8,3.4-0.8v2.1h-0.6c-1.5,0-2.6,0.4-3.5,1.2c-0.9,0.8-1.3,2.1-1.3,4v8.8h-2V21.6h2v2.8
		C135.5,23.5,136.1,22.7,137.1,22.2z"/>
	<path class="st3" d="M144.9,23.4v9.8c0,1,0.2,1.6,0.6,2c0.4,0.4,1,0.6,1.9,0.6h1.9v1.7H147c-1.4,0-2.5-0.3-3.2-1
		c-0.7-0.7-1-1.8-1-3.3v-9.8h-2.2v-1.7h2.2v-4h2.1v4h4.3v1.7H144.9z"/>
	<path class="st3" d="M151.3,18.2c-0.3-0.3-0.4-0.6-0.4-1.1c0-0.4,0.1-0.8,0.4-1.1c0.3-0.3,0.6-0.4,1-0.4s0.8,0.1,1,0.4
		c0.3,0.3,0.4,0.6,0.4,1.1c0,0.4-0.1,0.8-0.4,1.1c-0.3,0.3-0.6,0.4-1,0.4S151.6,18.5,151.3,18.2z M153.3,21.6v15.8h-2V21.6H153.3z"
		/>
	<path class="st3" d="M168.8,23.1c1.2,1.2,1.8,2.9,1.8,5.1v9.3h-2v-9c0-1.7-0.4-3-1.3-3.9c-0.9-0.9-2-1.4-3.5-1.4
		c-1.5,0-2.7,0.5-3.7,1.4c-0.9,1-1.4,2.4-1.4,4.3v8.6h-2V21.6h2v2.7c0.5-1,1.2-1.7,2.2-2.2c0.9-0.5,2-0.8,3.2-0.8
		C166,21.4,167.6,21.9,168.8,23.1z"/>
	<path class="st3" d="M184.3,22.5c1.1,0.7,1.9,1.6,2.4,2.6v-3.4h2v16.2c0,1.4-0.3,2.7-0.9,3.9c-0.6,1.1-1.5,2-2.6,2.6
		s-2.4,0.9-3.8,0.9c-2,0-3.7-0.5-5.1-1.4c-1.3-1-2.2-2.3-2.5-3.9h2c0.3,1.1,1,2,2,2.6c1,0.7,2.2,1,3.6,1c1,0,1.9-0.2,2.8-0.7
		c0.8-0.4,1.4-1.1,1.9-1.9c0.5-0.9,0.7-1.9,0.7-3V34c-0.5,1.1-1.3,2-2.4,2.7c-1.1,0.7-2.4,1.1-3.9,1.1c-1.4,0-2.7-0.3-3.9-1
		c-1.1-0.7-2-1.6-2.7-2.9c-0.6-1.2-1-2.7-1-4.3s0.3-3,1-4.3c0.6-1.2,1.5-2.2,2.7-2.8c1.1-0.7,2.4-1,3.9-1
		C181.9,21.4,183.2,21.8,184.3,22.5z M185.9,26.2c-0.5-1-1.2-1.7-2.1-2.2s-1.9-0.8-3-0.8c-1.1,0-2.1,0.3-3,0.8
		c-0.9,0.5-1.6,1.2-2.1,2.2c-0.5,1-0.8,2.1-0.8,3.4c0,1.3,0.3,2.4,0.8,3.4c0.5,1,1.2,1.7,2.1,2.2c0.9,0.5,1.9,0.8,3,0.8
		c1.1,0,2.1-0.3,3-0.8s1.6-1.3,2.1-2.2c0.5-1,0.8-2.1,0.8-3.4S186.4,27.2,185.9,26.2z"/>
</g>
<g id="Layer_1-2">
	<path class="st3" d="M36.9,26.6H13.2c-1.3,0-2.4-1.1-2.4-2.4v-1.6c0-1.3,1.1-2.4,2.4-2.4h23.7c1.3,0,2.4,1.1,2.4,2.4v1.6
		C39.2,25.5,38.1,26.6,36.9,26.6z M13.2,21.9c-0.5,0-0.8,0.3-0.8,0.8v1.6c0,0.5,0.3,0.8,0.8,0.8h23.7c0.5,0,0.8-0.3,0.8-0.8v-1.6
		c0-0.5-0.3-0.8-0.8-0.8H13.2z"/>
	<path class="st3" d="M44.7,25c-1.3,0-2.4-1.1-2.4-2.4c0-1.3,1.1-2.4,2.4-2.4c1.3,0,2.4,1.1,2.4,2.4C47.1,23.9,46,25,44.7,25z
		 M44.7,21.9c-0.5,0-0.8,0.3-0.8,0.8c0,0.5,0.3,0.8,0.8,0.8c0.5,0,0.8-0.3,0.8-0.8C45.5,22.2,45.2,21.9,44.7,21.9z"/>
	<path class="st3" d="M47.9,26.6c-0.2,0-0.5-0.2-0.6-0.2l-2.1-2.1c-0.3-0.3-0.3-0.8,0-1.1c0.3-0.3,0.8-0.3,1.1,0l2.1,2.1
		c0.3,0.3,0.3,0.8,0,1.1C48.4,26.4,48.1,26.6,47.9,26.6L47.9,26.6z"/>
	<path class="st4" d="M17.9,39.2h-4.7c-1.3,0-2.4-1.1-2.4-2.4v-4.7c0-1.3,1.1-2.4,2.4-2.4h4.7c1.3,0,2.4,1.1,2.4,2.4v4.7
		C20.3,38.1,19.2,39.2,17.9,39.2z M13.2,31.3c-0.5,0-0.8,0.3-0.8,0.8v4.7c0,0.5,0.3,0.8,0.8,0.8h4.7c0.5,0,0.8-0.3,0.8-0.8v-4.7
		c0-0.5-0.3-0.8-0.8-0.8H13.2z"/>
	<path class="st4" d="M46.3,39.2h-4.7c-1.3,0-2.4-1.1-2.4-2.4v-4.7c0-1.3,1.1-2.4,2.4-2.4h4.7c1.3,0,2.4,1.1,2.4,2.4v4.7
		C48.7,38.1,47.6,39.2,46.3,39.2z M41.6,31.3c-0.5,0-0.8,0.3-0.8,0.8v4.7c0,0.5,0.3,0.8,0.8,0.8h4.7c0.5,0,0.8-0.3,0.8-0.8v-4.7
		c0-0.5-0.3-0.8-0.8-0.8H41.6z"/>
	<path class="st4" d="M32.1,39.2h-4.7c-1.3,0-2.4-1.1-2.4-2.4v-4.7c0-1.3,1.1-2.4,2.4-2.4h4.7c1.3,0,2.4,1.1,2.4,2.4v4.7
		C34.5,38.1,33.4,39.2,32.1,39.2z M27.4,31.3c-0.5,0-0.8,0.3-0.8,0.8v4.7c0,0.5,0.3,0.8,0.8,0.8h4.7c0.5,0,0.8-0.3,0.8-0.8v-4.7
		c0-0.5-0.3-0.8-0.8-0.8H27.4z"/>
	<path class="st4" d="M19.5,43.9h-7.9c-0.5,0-0.8-0.3-0.8-0.8c0-0.5,0.3-0.8,0.8-0.8h7.9c0.5,0,0.8,0.3,0.8,0.8
		C20.3,43.6,20,43.9,19.5,43.9z"/>
	<path class="st4" d="M33.7,43.9h-7.9c-0.5,0-0.8-0.3-0.8-0.8c0-0.5,0.3-0.8,0.8-0.8h7.9c0.5,0,0.8,0.3,0.8,0.8
		C34.5,43.6,34.2,43.9,33.7,43.9z"/>
	<path class="st4" d="M47.9,43.9H40c-0.5,0-0.8-0.3-0.8-0.8c0-0.5,0.3-0.8,0.8-0.8h7.9c0.5,0,0.8,0.3,0.8,0.8
		C48.7,43.6,48.4,43.9,47.9,43.9z"/>
	<path class="st5" d="M51.1,48.7H8.5c-2.2,0-3.9-1.9-3.9-3.9V16.3c0-0.5,0.3-0.8,0.8-0.8h48.9c0.5,0,0.8,0.3,0.8,0.8v28.4
		C55,46.8,53.3,48.7,51.1,48.7z M6.1,17.1v27.6c0,1.3,1.1,2.4,2.4,2.4h42.6c1.3,0,2.4-1.1,2.4-2.4V17.1H6.1z"/>
	<path class="st4" d="M54.2,17.1H5.3c-0.5,0-0.8-0.5-0.8-0.8v-4.7c0-2.2,1.7-3.9,3.9-3.9h42.6c2.2,0,3.9,1.7,3.9,3.9v4.7
		C55,16.7,54.7,17.1,54.2,17.1z M6.1,15.5h47.3v-3.9c0-1.3-1.1-2.4-2.4-2.4H8.5c-1.3,0-2.4,0.9-2.4,2.4V15.5z"/>
	<circle class="st6" cx="10.8" cy="12.4" r="1.6"/>
	<circle class="st6" cx="15.6" cy="12.4" r="1.6"/>
	<circle class="st6" cx="20.3" cy="12.4" r="1.6"/>
</g>
</svg>
