<?xml version="1.0" encoding="utf-8"?>
<!-- Generator: Adobe Illustrator 27.2.0, SVG Export Plug-In . SVG Version: 6.00 Build 0)  -->
<svg version="1.1" id="Layer_1" xmlns="http://www.w3.org/2000/svg" xmlns:xlink="http://www.w3.org/1999/xlink" x="0px" y="0px"
	 viewBox="0 0 120 45" style="enable-background:new 0 0 120 45;" xml:space="preserve">
<style type="text/css">
	.st0{fill:#64B0AE;}
	.st1{fill:#465A65;}
</style>
<g>
	<path class="st0" d="M35.8,21.8h-8.4c-0.4,0-0.7,0.3-0.7,0.7v2.6c0,1.4,0,2.9,0,4.3c0,1.4,0.8,2.3,2.3,2.5c0.7,0.1,1.5,0.2,2.3,0.1
		h8.5c0.5,0,1.1,0,1.6-0.1c1.8-0.2,2.5-1.2,2.6-3c0-0.3,0-0.7,0-1c0-0.8,1.1-1.4,1.8-1.1C46,27,46,27.1,46,27.3
		c0,1.3,0.1,2.6-0.4,3.9C44.8,33,43.4,34,41.4,34c-4,0-8.1,0-12.1,0c-1.4,0-2.8-0.4-3.7-1.6c-0.8-1-1.1-2.2-1.1-3.4
		c0-2.7,0-5.4,0-8.1v-7.2c0-0.4,0-0.8,0-1.2c0.3-2.3,1.5-3.8,4.8-4c4.1-0.2,8.2-0.1,12.3,0c2.9,0,4.5,2.5,4.5,4.7c0,2.3,0,4.5,0,6.8
		c0,1.4-0.6,2-2.1,2C41.3,21.8,38.6,21.8,35.8,21.8L35.8,21.8z M35.3,19.9h8c0.4,0,0.6-0.1,0.6-0.6c0-2.1,0-4.1,0-6.2
		c0-1-0.4-1.9-1.3-2.4c-0.6-0.3-1.2-0.5-2-0.5H30c-0.5,0-1,0.1-1.5,0.2c-1.2,0.3-1.8,1.2-1.9,2.4c-0.1,2-0.1,4-0.1,6.1c0,1,0,1,1,1
		C30.2,19.9,32.8,19.9,35.3,19.9L35.3,19.9z"/>
	<path class="st0" d="M1.9,10.1C2,8.8,2.6,8.3,3.8,8.3h16.9c0.7,0,1.2,0.2,1.5,0.9c0.3,0.6,0.1,1.2-0.3,1.6c-1.3,1.5-2.6,3-3.9,4.5
		c-2.2,2.6-4.5,5.1-6.7,7.7c-1.7,2-3.5,4-5.2,6c-0.7,0.8-1.3,1.6-2,2.4c-0.2,0.3-0.2,0.5,0.2,0.5h17.4c0.3,0,0.6-0.1,0.8,0.2
		c0.1,0.3,0,0.7-0.2,1c-0.4,0.5-0.9,0.8-1.5,0.8H2.4c-0.7,0-1.2-0.2-1.4-0.8c-0.3-0.6-0.1-1.2,0.3-1.7c0.8-0.9,1.5-1.7,2.3-2.6
		c2.2-2.5,4.4-5.1,6.6-7.7c1.7-1.9,3.4-3.9,5-5.8c1.2-1.4,2.5-2.9,3.7-4.3c0,0,0.1-0.1,0.2-0.2c0.2-0.4,0.2-0.6-0.2-0.6H2.9
		C2.6,10.2,2.2,10.3,1.9,10.1L1.9,10.1z"/>
	<path class="st1" d="M67.7,18c1-0.6,2.1-0.8,3.4-0.8c1.3,0,2.6,0.3,3.6,1c1.1,0.6,1.9,1.5,2.5,2.7c0.6,1.2,0.9,2.5,0.9,4
		s-0.3,2.9-0.9,4c-0.6,1.2-1.5,2.1-2.6,2.8c-1.1,0.7-2.3,1-3.6,1c-1.3,0-2.4-0.3-3.4-0.8c-0.6-0.3-1.1-0.7-1.5-1.1
		c-0.3-0.3-0.7-0.1-0.7,0.3v0.8c0,0.4-0.3,0.7-0.7,0.7h-0.4c-0.7,0-1.3-0.6-1.3-1.3V13.3c0-0.6,0.5-1.1,1.1-1.1H65
		c0.2,0,0.4,0.2,0.4,0.4v6.3c0,0.4,0.5,0.6,0.7,0.3C66.6,18.7,67.1,18.3,67.7,18L67.7,18z M74.9,21.9c-0.5-0.8-1.1-1.5-1.8-1.9
		c-0.8-0.4-1.6-0.7-2.6-0.7c-0.9,0-1.8,0.2-2.5,0.7c-0.8,0.4-1.4,1.1-1.9,1.9c-0.5,0.8-0.7,1.8-0.7,2.9s0.2,2.1,0.7,3
		c0.5,0.8,1.1,1.5,1.9,1.9c0.8,0.4,1.6,0.7,2.5,0.7c0.9,0,1.8-0.2,2.6-0.7c0.8-0.4,1.4-1.1,1.8-1.9c0.5-0.8,0.7-1.8,0.7-3
		S75.4,22.7,74.9,21.9L74.9,21.9z"/>
	<path class="st1" d="M90.4,31.7c-1.1-0.6-2-1.5-2.7-2.7c-0.6-1.2-1-2.5-1-4.1c0-1.5,0.3-2.9,1-4.1c0.7-1.2,1.6-2.1,2.7-2.7
		c1.1-0.6,2.4-0.9,3.8-0.9s2.7,0.3,3.8,0.9c1.1,0.6,2.1,1.5,2.7,2.7c0.7,1.2,1,2.5,1,4.1s-0.3,2.9-1,4.1c-0.7,1.2-1.6,2.1-2.8,2.7
		s-2.5,1-3.9,1C92.8,32.6,91.5,32.3,90.4,31.7L90.4,31.7z M96.7,29.8c0.8-0.4,1.4-1,1.9-1.9c0.5-0.8,0.7-1.9,0.7-3.1
		c0-1.2-0.2-2.2-0.7-3.1c-0.5-0.8-1.1-1.5-1.9-1.9c-0.8-0.4-1.6-0.6-2.5-0.6c-0.9,0-1.7,0.2-2.5,0.6c-0.8,0.4-1.4,1-1.8,1.9
		c-0.5,0.8-0.7,1.9-0.7,3.1c0,1.2,0.2,2.2,0.7,3.1c0.4,0.8,1,1.5,1.8,1.9c0.7,0.4,1.6,0.6,2.5,0.6S95.9,30.2,96.7,29.8L96.7,29.8z"
		/>
	<path class="st1" d="M114.5,18c0.5,0.3,0.9,0.6,1.2,0.9c0.4,0.3,1,0.1,1-0.4V18c0-0.3,0.3-0.6,0.6-0.6h0.7c0.7,0,1.3,0.6,1.3,1.3
		v14c0,1.4-0.3,2.6-0.9,3.6c-0.6,1.1-1.4,1.9-2.5,2.5c-1.1,0.6-2.3,0.9-3.8,0.9c-2,0-3.6-0.5-4.9-1.4c-1-0.7-1.7-1.7-2.1-2.8
		c-0.2-0.5,0.2-1,0.7-1h0.2c0.7,0,1.3,0.4,1.7,0.9c0.3,0.5,0.7,0.9,1.3,1.3c0.9,0.6,1.9,0.8,3.1,0.8c1.4,0,2.5-0.4,3.3-1.3
		c0.9-0.9,1.3-2.1,1.3-3.6v-1.5c0-0.5-0.6-0.8-1-0.4c-0.4,0.3-0.8,0.7-1.2,0.9c-1,0.6-2.1,0.9-3.4,0.9s-2.5-0.3-3.6-1
		c-1.1-0.7-1.9-1.6-2.6-2.8c-0.6-1.2-0.9-2.5-0.9-4c0-1.5,0.3-2.9,0.9-4c0.6-1.2,1.5-2.1,2.6-2.7c1.1-0.6,2.3-1,3.6-1
		S113.5,17.4,114.5,18L114.5,18z M116,21.9c-0.5-0.8-1.1-1.5-1.8-1.9c-0.8-0.4-1.6-0.7-2.6-0.7s-1.8,0.2-2.5,0.7
		c-0.8,0.4-1.4,1.1-1.8,1.9c-0.5,0.8-0.7,1.8-0.7,2.9s0.2,2.1,0.7,3c0.5,0.8,1.1,1.5,1.8,1.9c0.8,0.4,1.6,0.7,2.5,0.7
		s1.8-0.2,2.6-0.7c0.8-0.4,1.4-1.1,1.8-1.9c0.5-0.8,0.7-1.8,0.7-3S116.4,22.7,116,21.9L116,21.9z"/>
	<path class="st0" d="M57.5,22V10.6c0-0.3-0.1-0.5-0.4-0.5h-8c-0.2,0-0.6,0.1-0.8-0.2c-0.1-0.3,0-0.6,0.2-0.9c0.4-0.6,1-0.8,1.7-0.8
		h16.8c0.9,0,1.3,0.3,1.6,1.1c0.2,0.6,0,0.8-0.6,0.8h-7.7c-0.6,0-1,0.3-1,1V32c0,0.7-0.1,1.4-0.8,1.8c-0.7,0.4-1.1,0.2-1.1-0.6
		C57.5,29.4,57.5,25.7,57.5,22L57.5,22z"/>
	<g>
		
			<rect x="80.5" y="12.2" transform="matrix(0.9634 -0.2679 0.2679 0.9634 -2.847 22.6832)" class="st1" width="2.4" height="19.1"/>
		<path class="st1" d="M83.4,32.4l0.3,1.2c0,0.1,0.1,0.2,0.2,0.3c0.1,0.1,0.1,0.2,0.2,0.2l0.8,0.6c0.2,0.1,0.4,0.2,0.5,0.1
			c0.2-0.1,0.3-0.2,0.4-0.4l0.4-0.9c0-0.1,0-0.1,0-0.3c0-0.1,0-0.2,0-0.3l-0.3-1.2L83.4,32.4L83.4,32.4z"/>
		<path class="st1" d="M77.8,9.2L78.5,9c0.4-0.1,0.9,0.1,1,0.6l0.5,1.7l-2.4,0.7l-0.5-1.7C77.1,9.8,77.3,9.3,77.8,9.2L77.8,9.2z"/>
	</g>
</g>
</svg>
