<?xml version="1.0" standalone="no"?><svg xmlns="http://www.w3.org/2000/svg" viewBox="0 0 1440 320"><path fill="#edf5ff" fill-opacity="1" d="M0,96L12.6,133.3C25.3,171,51,245,76,266.7C101.1,288,126,256,152,218.7C176.8,181,202,139,227,144C252.6,149,278,203,303,234.7C328.4,267,354,277,379,234.7C404.2,192,429,96,455,90.7C480,85,505,171,531,208C555.8,245,581,235,606,197.3C631.6,160,657,96,682,96C707.4,96,733,160,758,165.3C783.2,171,808,117,834,101.3C858.9,85,884,107,909,138.7C934.7,171,960,213,985,234.7C1010.5,256,1036,256,1061,245.3C1086.3,235,1112,213,1137,181.3C1162.1,149,1187,107,1213,112C1237.9,117,1263,171,1288,176C1313.7,181,1339,139,1364,133.3C1389.5,128,1415,160,1427,176L1440,192L1440,320L1427.4,320C1414.7,320,1389,320,1364,320C1338.9,320,1314,320,1288,320C1263.2,320,1238,320,1213,320C1187.4,320,1162,320,1137,320C1111.6,320,1086,320,1061,320C1035.8,320,1011,320,985,320C960,320,935,320,909,320C884.2,320,859,320,834,320C808.4,320,783,320,758,320C732.6,320,707,320,682,320C656.8,320,632,320,606,320C581.1,320,556,320,531,320C505.3,320,480,320,455,320C429.5,320,404,320,379,320C353.7,320,328,320,303,320C277.9,320,253,320,227,320C202.1,320,177,320,152,320C126.3,320,101,320,76,320C50.5,320,25,320,13,320L0,320Z"></path></svg>