<?xml version="1.0" standalone="no"?><svg xmlns="http://www.w3.org/2000/svg" viewBox="0 0 1440 320"><path fill="#edf5ff" fill-opacity="1" d="M0,320L40,314.7C80,309,160,299,240,261.3C320,224,400,160,480,122.7C560,85,640,75,720,69.3C800,64,880,64,960,74.7C1040,85,1120,107,1200,112C1280,117,1360,107,1400,101.3L1440,96L1440,320L1400,320C1360,320,1280,320,1200,320C1120,320,1040,320,960,320C880,320,800,320,720,320C640,320,560,320,480,320C400,320,320,320,240,320C160,320,80,320,40,320L0,320Z"></path></svg>